<?xml version="1.0" encoding="UTF-8"?>
<!DOCTYPE svg PUBLIC "-//W3C//DTD SVG 1.1//EN" "http://www.w3.org/Graphics/SVG/1.1/DTD/svg11.dtd">
            <svg xmlns="http://www.w3.org/2000/svg" xml:space="preserve" width="5.61972in" height="13.5991in"
                version="1.1"
                style="shape-rendering:geometricPrecision; text-rendering:geometricPrecision; image-rendering:optimizeQuality; fill-rule:evenodd; clip-rule:evenodd"
                viewBox="0 0 5984.26 14481.29" xmlns:xlink="http://www.w3.org/1999/xlink"
                xmlns:xodm="http://www.corel.com/coreldraw/odm/2003" id="zoomImage">
                <defs>
                    <style type="text/css">
                        <![CDATA[
                        .str8 {
                            stroke: #4F80BB;
                            stroke-width: 22.19;
                            stroke-miterlimit: 2.61313
                        }

                        .str11 {
                            stroke: #4F80BB;
                            stroke-width: 14.79;
                            stroke-miterlimit: 2.61313
                        }

                        .str6 {
                            stroke: #6699FF;
                            stroke-width: 14.79;
                            stroke-miterlimit: 2.61313
                        }

                        .str4 {
                            stroke: #373435;
                            stroke-width: 7.4;
                            stroke-miterlimit: 2.61313
                        }

                        .str1 {
                            stroke: #8EB2E2;
                            stroke-width: 7.4;
                            stroke-miterlimit: 2.61313
                        }

                        .str2 {
                            stroke: #9BAE81;
                            stroke-width: 7.4;
                            stroke-miterlimit: 2.61313
                        }

                        .str9 {
                            stroke: #EDEAE1;
                            stroke-width: 7.4;
                            stroke-miterlimit: 2.61313
                        }

                        .str5 {
                            stroke: #FDFED2;
                            stroke-width: 7.4;
                            stroke-miterlimit: 2.61313
                        }

                        .str10 {
                            stroke: #4F80BB;
                            stroke-width: 3.19;
                            stroke-miterlimit: 2.61313
                        }

                        .str7 {
                            stroke: #EF9AA0;
                            stroke-width: 3.19;
                            stroke-miterlimit: 2.61313
                        }

                        .str0 {
                            stroke: red;
                            stroke-width: 3.19;
                            stroke-miterlimit: 2.61313
                        }

                        .str3 {
                            stroke: #6699FF;
                            stroke-width: 7.4;
                            stroke-miterlimit: 2.61313;
                            stroke-dasharray: 7.395384 22.186152
                        }

                        .fil5 {
                            fill: none
                        }

                        .fil7 {
                            fill: #373435
                        }

                        .fil6 {
                            fill: #6B809B
                        }

                        .fil1 {
                            fill: #4F80BB
                        }

                        .fil3 {
                            fill: #8EB2E2
                        }

                        .fil11 {
                            fill: #91CF50
                        }

                        .fil2 {
                            fill: #9BAE81
                        }

                        .fil14 {
                            fill: #B3B3B3
                        }

                        .fil12 {
                            fill: #EDEAE1
                        }

                        .fil9 {
                            fill: #EF9AA0
                        }

                        .fil0 {
                            fill: #F5F1F4
                        }

                        .fil4 {
                            fill: #FDFED2
                        }

                        .fil13 {
                            fill: #FFBF00
                        }

                        .fil10 {
                            fill: white
                        }

                        .fil8 {
                            fill: #373435;
                            fill-rule: nonzero
                        }
                        ]]>
                    </style>
                </defs>
                <g id="Layer_x0020_1">
                    <metadata id="CorelCorpID_0Corel-Layer" />
                    <path class="fil0 str0"
                        d="M536.6 1524.56l4068.85 2096.72c0,1283.45 -88.89,2458.01 -273.74,3689.59l-758.74 2179.7 -815.81 706.41 55.6 1480.78 273.85 795.73 63.44 2006 -2721.17 -320.29 447.39 -3216.98 -614.05 -2081.03 -260.45 -2497.91 166.51 -4.12 -71.18 -758.68 730.31 -2865.71 -272.53 -856.48 -18.28 -353.75z" />
                    <polygon id="region4" class="fil1 region str1"
                        points="1032.14,3245.06 2585.13,3954.69 2062.91,7261.82 1701.68,7533.6 471.47,7313.81 471.47,6262.47 940.79,4526.38 605.06,4390.57 "
                        onclick="alert('region 4')" />
                    <path id="region2" class="fil2 region str2"
                        d="M219.62 7861.14l1554.52 0 -78.47 2034.14 78.47 1971.75 -884.88 0 65.03 -977.21c-292.78,-792.92 -461.52,-1499.15 -675.21,-2286.12l-59.46 -742.56z"
                        onclick="alert('region 2')" />
                    <polygon id="region1" class="fil3 region str1"
                        points="2606.43,7925 3982.93,8027.05 3572.96,9490.56 2757.15,10196.97 2735.85,11566.88 2147.69,11566.88 2292.77,10558.22 2510.83,10301.59 2382.22,9941.51 "
                        onclick="alert('region 1')" />
                    <path id="road" class="fil4 str3"
                        d="M2266.25 10508.75l32.86 -45.76c72.99,-61.05 119.41,-152.81 119.41,-255.41 0,-84.93 -31.82,-162.44 -84.17,-221.25 110.12,-750.78 186.04,-2061.33 330.35,-2252.35 44.56,-56.61 71.14,-128.04 71.14,-205.68 0,-71.74 -22.69,-138.18 -61.3,-192.53 -29.04,-257.18 61.98,-510.91 93.24,-722.7 98.27,-734.35 187.72,-2060.06 318.06,-2620.56 28.82,-123.96 36.22,-191.97 70.39,-227.05l703.53 370.92 3.85 -4.13c-8.3,29.07 -12.74,59.78 -12.74,91.52 0,183.82 149.01,332.84 332.84,332.84 183.83,0 332.84,-149.01 332.84,-332.84 0,-183.83 -149.01,-332.84 -332.84,-332.84 -39.95,0 -78.26,7.04 -113.74,19.94l-2374.08 -1191.61c-81.81,-48.85 -163.62,-45.19 -245.43,-145.43 0.02,-1.55 0.03,-3.11 0.03,-4.67 0,-183.83 -149.01,-332.84 -332.84,-332.84 -183.82,0 -332.84,149.01 -332.84,332.84 0,183.82 149.01,332.84 332.84,332.84 58.05,0 112.63,-14.86 160.13,-40.98l-11.76 19.9c184.47,-50.06 354.78,81.29 515.08,159.54l786.98 414.92c67.73,57.5 134.68,115.88 111.01,275.31l-284.79 2545.8c-29.13,362.52 -110.52,685.16 -192.62,986.73 -79.93,60.79 -131.53,156.91 -131.53,265.09 0,73.05 23.54,140.61 63.44,195.5 32.03,709.65 -66.26,1470.84 -230.73,2205.59 -90.38,59.51 -150.03,161.88 -150.03,278.19 0,44 8.54,86.02 24.05,124.47l37.61 68.57 42.97 78.34 -104.63 1401.66 208.26 0 305.15 -1371.86z"
                        onclick="alert('You clicked the road')" />
                    <g id="_1524678701664">
                        <circle class="fil5 str4" cx="2070.81" cy="10193.57" r="261.29" />
                        <polygon class="fil6 str5"
                            points="1809.52,10163.99 1822.33,10186.18 1835.13,10208.36 1809.52,10208.36 1783.91,10208.36 1796.71,10186.18 " />
                        <polygon class="fil6 str5"
                            points="1888.8,10003.78 1884.47,10029.03 1880.13,10054.27 1860.43,10037.9 1840.74,10021.53 1864.77,10012.65 " />
                        <polygon class="fil6 str5"
                            points="2052.19,9931.27 2032.72,9947.92 2013.24,9964.55 2008.57,9939.37 2003.89,9914.19 2028.04,9922.73 " />
                        <polygon class="fil6 str5"
                            points="2224.19,9979.97 2198.57,9980.32 2172.96,9980.67 2185.46,9958.31 2197.97,9935.96 2211.08,9957.96 " />
                        <polygon class="fil6 str5"
                            points="2325.31,10127.38 2305.39,10111.27 2285.47,10095.16 2309.38,10085.97 2333.28,10076.77 2329.3,10102.07 " />
                        <polygon class="fil6 str5"
                            points="2308.82,10305.38 2303.8,10280.25 2298.79,10255.13 2323.05,10263.34 2347.31,10271.56 2328.07,10288.47 " />
                        <polygon class="fil6 str5"
                            points="2182.36,10431.7 2194.56,10409.18 2206.76,10386.66 2220.17,10408.48 2233.57,10430.31 2207.97,10431.01 " />
                        <polygon class="fil6 str5"
                            points="2004.34,10448 2028.13,10438.48 2051.91,10428.96 2048.27,10454.31 2044.62,10479.66 2024.48,10463.83 " />
                        <polygon class="fil6 str5"
                            points="1857.05,10346.72 1881.42,10354.6 1905.79,10362.49 1886.78,10379.65 1867.77,10396.82 1862.4,10371.77 " />
                    </g>
                    <g id="_1524678702960">
                        <circle class="fil5 str4" cx="2385.32" cy="7519.41" r="261.29" />
                        <polygon class="fil7 str5"
                            points="2124.03,7489.83 2136.84,7512.01 2149.65,7534.2 2124.03,7534.2 2098.42,7534.2 2111.22,7512.01 " />
                        <polygon class="fil7 str5"
                            points="2203.32,7329.61 2198.98,7354.86 2194.64,7380.11 2174.95,7363.74 2155.25,7347.36 2179.28,7338.48 " />
                        <polygon class="fil7 str5"
                            points="2366.71,7257.11 2347.23,7273.75 2327.76,7290.39 2323.08,7265.21 2318.4,7240.02 2342.55,7248.56 " />
                        <polygon class="fil7 str5"
                            points="2538.7,7305.81 2513.08,7306.16 2487.47,7306.5 2499.98,7284.15 2512.48,7261.79 2525.59,7283.8 " />
                        <polygon class="fil7 str5"
                            points="2639.82,7453.21 2619.9,7437.11 2599.98,7421 2623.89,7411.8 2647.79,7402.6 2643.81,7427.91 " />
                        <polygon class="fil7 str5"
                            points="2623.34,7631.21 2618.32,7606.09 2613.3,7580.96 2637.57,7589.18 2661.83,7597.39 2642.58,7614.3 " />
                        <polygon class="fil7 str5"
                            points="2496.87,7757.54 2509.07,7735.01 2521.27,7712.49 2534.68,7734.32 2548.08,7756.14 2522.48,7756.84 " />
                        <polygon class="fil7 str5"
                            points="2318.86,7773.83 2342.64,7764.31 2366.42,7754.79 2362.78,7780.15 2359.13,7805.5 2339,7789.67 " />
                        <polygon class="fil7 str5"
                            points="2171.56,7672.55 2195.93,7680.43 2220.3,7688.32 2201.3,7705.49 2182.28,7722.65 2176.92,7697.61 " />
                    </g>
                    <g id="_1524678707424">
                        <circle class="fil5 str4" cx="4191.1" cy="4216.28" r="261.29" />
                        <polygon class="fil7 str5"
                            points="3929.81,4186.69 3942.62,4208.88 3955.42,4231.07 3929.81,4231.07 3904.2,4231.07 3917,4208.88 " />
                        <polygon class="fil7 str5"
                            points="4009.09,4026.48 4004.76,4051.73 4000.42,4076.97 3980.72,4060.6 3961.03,4044.23 3985.06,4035.35 " />
                        <polygon class="fil7 str5"
                            points="4172.48,3953.97 4153.01,3970.62 4133.53,3987.26 4128.86,3962.07 4124.18,3936.89 4148.33,3945.43 " />
                        <polygon class="fil7 str5"
                            points="4344.48,4002.67 4318.86,4003.02 4293.25,4003.37 4305.75,3981.01 4318.26,3958.66 4331.37,3980.66 " />
                        <polygon class="fil7 str5"
                            points="4445.6,4150.08 4425.68,4133.97 4405.76,4117.86 4429.67,4108.67 4453.57,4099.47 4449.59,4124.78 " />
                        <polygon class="fil7 str5"
                            points="4429.11,4328.08 4424.1,4302.95 4419.08,4277.83 4443.34,4286.04 4467.6,4294.26 4448.36,4311.17 " />
                        <polygon class="fil7 str5"
                            points="4302.65,4454.41 4314.85,4431.88 4327.05,4409.36 4340.46,4431.18 4353.86,4453.01 4328.26,4453.71 " />
                        <polygon class="fil7 str5"
                            points="4124.63,4470.7 4148.42,4461.18 4172.2,4451.66 4168.56,4477.01 4164.91,4502.36 4144.77,4486.53 " />
                        <polygon class="fil7 str5"
                            points="3977.34,4369.42 4001.71,4377.3 4026.08,4385.19 4007.07,4402.35 3988.06,4419.52 3982.7,4394.47 " />
                    </g>
                    <g id="circles">
                        <circle class="fil5 str4" cx="1117.98" cy="2571.32" r="261.29" />
                        <polygon class="fil7 str5"
                            points="856.69,2541.74 869.5,2563.93 882.31,2586.11 856.69,2586.11 831.08,2586.11 843.88,2563.93 " />
                        <polygon class="fil7 str5"
                            points="935.98,2381.53 931.64,2406.78 927.3,2432.02 907.61,2415.65 887.91,2399.27 911.94,2390.4 " />
                        <polygon class="fil7 str5"
                            points="1099.37,2309.02 1079.89,2325.66 1060.42,2342.3 1055.74,2317.12 1051.06,2291.94 1075.22,2300.48 " />
                        <polygon class="fil7 str5"
                            points="1271.36,2357.72 1245.74,2358.07 1220.13,2358.41 1232.64,2336.06 1245.14,2313.71 1258.25,2335.71 " />
                        <polygon class="fil7 str5"
                            points="1372.48,2505.13 1352.56,2489.02 1332.64,2472.91 1356.55,2463.72 1380.45,2454.52 1376.47,2479.82 " />
                        <polygon class="fil7 str5"
                            points="1356,2683.12 1350.98,2658 1345.96,2632.88 1370.23,2641.09 1394.49,2649.3 1375.24,2666.22 " />
                        <polygon class="fil7 str5"
                            points="1229.53,2809.45 1241.73,2786.93 1253.93,2764.41 1267.34,2786.23 1280.74,2808.06 1255.14,2808.76 " />
                        <polygon class="fil7 str5"
                            points="1051.52,2825.75 1075.3,2816.22 1099.08,2806.71 1095.44,2832.06 1091.79,2857.41 1071.66,2841.58 " />
                        <polygon class="fil7 str5"
                            points="904.22,2724.47 928.59,2732.35 952.96,2740.24 933.96,2757.4 914.94,2774.56 909.58,2749.52 " />
                    </g>
                    <g id="Lines">
                        <g>
                            <path class="fil8"
                                d="M1915.29 10662.33l-7.24 -1.53 1.66 -8.17 1.6 -8.35 1.52 -8.5 1.44 -8.65 1.37 -8.77 1.28 -8.87 1.2 -8.95 1.11 -9.02 1.02 -9.07 0.93 -9.09 0.83 -9.1 0.73 -9.09 0.63 -9.06 0.52 -9.01 0.42 -8.95 0.3 -8.85 0.19 -8.75 0.07 -8.62 -0.05 -8.49 -0.17 -8.31 -0.29 -8.14 -0.42 -7.93 -0.56 -7.71 -0.68 -7.47 -0.83 -7.21 -0.96 -6.93 -1.1 -6.63 -1.24 -6.31 -1.38 -5.97 -1.53 -5.6 -1.67 -5.22 -1.81 -4.81 6.85 -2.79 1.95 5.18 1.78 5.55 1.6 5.89 1.44 6.22 1.29 6.54 1.13 6.84 0.99 7.11 0.84 7.38 0.7 7.62 0.57 7.86 0.43 8.07 0.3 8.25 0.17 8.43 0.05 8.59 -0.07 8.72 -0.19 8.85 -0.31 8.95 -0.42 9.03 -0.53 9.09 -0.63 9.14 -0.74 9.17 -0.84 9.18 -0.93 9.17 -1.03 9.14 -1.12 9.09 -1.21 9.04 -1.3 8.95 -1.38 8.85 -1.46 8.72 -1.54 8.59 -1.61 8.44 -1.68 8.26zm-12.95 13.24l13.91 -5.37 -12.24 -2.57 49.44 -49.71 10.57 10.51 -49.43 49.71 -12.24 -2.57zm0 0l12.24 2.57 -8.1 8.15 -4.14 -10.72zm-18.27 -68.11l6.96 -2.68 25.23 65.43 -13.91 5.37 -25.23 -65.43 6.96 -2.68z" />
                        </g>
                        <g>
                            <path class="fil8"
                                d="M2283.32 7262.62l-6.51 -3.5 3.88 -7.21 3.77 -7.03 3.66 -6.86 3.56 -6.7 3.45 -6.54 3.33 -6.4 3.23 -6.26 3.12 -6.12 3.01 -6 2.9 -5.87 2.79 -5.76 2.69 -5.65 2.58 -5.55 2.47 -5.47 2.36 -5.38 2.25 -5.29 2.14 -5.23 2.03 -5.17 1.92 -5.11 1.82 -5.06 1.71 -5.02 1.6 -4.98 1.49 -4.96 1.38 -4.94 1.27 -4.93 1.17 -4.92 1.06 -4.93 0.95 -4.93 0.84 -4.95 0.73 -4.98 0.63 -5.01 0.52 -5.06 7.36 0.68 -0.54 5.22 -0.65 5.17 -0.76 5.14 -0.87 5.12 -0.99 5.09 -1.09 5.08 -1.2 5.07 -1.31 5.07 -1.42 5.08 -1.53 5.09 -1.64 5.11 -1.74 5.14 -1.86 5.18 -1.97 5.21 -2.07 5.26 -2.18 5.32 -2.28 5.39 -2.39 5.45 -2.5 5.53 -2.61 5.62 -2.71 5.71 -2.82 5.81 -2.93 5.92 -3.03 6.04 -3.14 6.16 -3.24 6.28 -3.35 6.42 -3.46 6.57 -3.56 6.72 -3.67 6.88 -3.78 7.04 -3.88 7.22zm-16.17 9.04l14.86 -1.22 -11.01 -5.93 61.46 -33.72 7.17 13.07 -61.46 33.72 -11.01 -5.93zm0 0l11.01 5.93 -10.07 5.53 -0.94 -11.46zm1.71 -70.5l7.43 -0.61 5.72 69.89 -14.86 1.22 -5.72 -69.89 7.43 -0.61z" />
                        </g>
                        <g>
                            <path class="fil8"
                                d="M2064.95 9552.63l22.01 -148.21 7.31 1.09 -22.01 148.21 -7.31 -1.09zm-4.82 15.08l13.56 -6.19 -12.37 -1.84 46.36 -52.59 11.18 9.86 -46.36 52.59 -12.37 -1.83zm0 0l12.37 1.83 -7.6 8.62 -4.77 -10.46zm-22.33 -66.89l6.78 -3.09 29.11 63.8 -13.56 6.19 -29.11 -63.8 6.78 -3.09z" />
                        </g>
                        <g>
                            <path class="fil8"
                                d="M2123.49 9150.63l25.16 -236.48 7.35 0.78 -25.16 236.48 -7.35 -0.78zm-4.19 15.26l13.29 -6.75 -12.44 -1.32 44.15 -54.46 11.58 9.39 -44.14 54.46 -12.44 -1.32zm0 0l12.44 1.32 -7.24 8.93 -5.2 -10.25zm-25.08 -65.91l6.64 -3.37 31.73 62.53 -13.29 6.75 -31.73 -62.53 6.65 -3.37z" />
                        </g>
                        <g>
                            <path class="fil8"
                                d="M2193.64 8556.91l25.16 -236.48 7.35 0.78 -25.16 236.48 -7.35 -0.78zm-4.19 15.26l13.29 -6.75 -12.44 -1.32 44.15 -54.46 11.58 9.39 -44.14 54.46 -12.44 -1.32zm0 0l12.44 1.32 -7.24 8.93 -5.2 -10.25zm-25.08 -65.91l6.64 -3.37 31.73 62.53 -13.29 6.75 -31.73 -62.53 6.65 -3.37z" />
                        </g>
                        <g>
                            <path class="fil8"
                                d="M2236.78 8002.61l-7.3 -1.16 1.1 -7.07 1.1 -7.39 1.09 -7.68 1.09 -7.95 1.06 -8.19 1.04 -8.41 1.01 -8.6 0.97 -8.77 0.93 -8.9 0.88 -9.02 0.83 -9.1 0.76 -9.16 0.69 -9.19 0.62 -9.2 0.53 -9.19 0.44 -9.14 0.35 -9.08 0.25 -8.98 0.14 -8.85 0.03 -8.71 -0.1 -8.54 -0.22 -8.34 -0.36 -8.11 -0.49 -7.85 -0.64 -7.57 -0.79 -7.27 -0.95 -6.93 -1.11 -6.56 -1.27 -6.17 -1.44 -5.75 -1.61 -5.29 -1.78 -4.82 6.85 -2.79 1.94 5.25 1.73 5.68 1.52 6.07 1.33 6.46 1.15 6.8 0.98 7.15 0.81 7.45 0.65 7.74 0.5 8 0.36 8.24 0.23 8.46 0.1 8.64 -0.03 8.81 -0.14 8.95 -0.25 9.06 -0.36 9.15 -0.44 9.22 -0.54 9.25 -0.62 9.27 -0.7 9.25 -0.76 9.21 -0.83 9.16 -0.88 9.07 -0.94 8.95 -0.98 8.81 -1.01 8.65 -1.05 8.45 -1.07 8.24 -1.09 7.99 -1.1 7.73 -1.11 7.44 -1.11 7.11zm-12.28 13.87l13.63 -6.05 -12.35 -1.96 46.89 -52.12 11.08 9.97 -46.89 52.12 -12.35 -1.96zm0 0l12.35 1.96 -7.69 8.54 -4.67 -10.5zm-21.65 -67.12l6.81 -3.02 28.46 64.08 -13.63 6.05 -28.46 -64.09 6.81 -3.03z" />
                        </g>
                        <g>
                            <path class="fil8"
                                d="M2389.29 6846.01l24 -159.51 7.31 1.1 -24 159.51 -7.31 -1.1zm-4.85 15.07l13.57 -6.16 -12.37 -1.86 46.46 -52.5 11.16 9.88 -46.46 52.5 -12.37 -1.86zm0 0l12.37 1.86 -7.62 8.61 -4.75 -10.47zm-22.2 -66.93l6.79 -3.08 28.99 63.85 -13.57 6.16 -28.99 -63.85 6.79 -3.08z" />
                        </g>
                        <g>
                            <path class="fil8"
                                d="M2467.32 6272.77l28.01 -236.51 7.35 0.87 -28.01 236.51 -7.35 -0.87zm-4.37 15.21l13.37 -6.59 -12.42 -1.47 44.79 -53.94 11.47 9.52 -44.79 53.94 -12.42 -1.47zm0 0l12.42 1.47 -7.34 8.84 -5.08 -10.31zm-24.29 -66.2l6.69 -3.29 30.98 62.91 -13.37 6.59 -30.98 -62.91 6.69 -3.3z" />
                        </g>
                        <g>
                            <path class="fil8"
                                d="M2655.5 4564.1l28.01 -236.51 7.35 0.87 -28.01 236.51 -7.35 -0.87zm-4.37 15.21l13.37 -6.59 -12.42 -1.47 44.79 -53.94 11.47 9.52 -44.79 53.94 -12.42 -1.47zm0 0l12.42 1.47 -7.34 8.84 -5.08 -10.31zm-24.29 -66.2l6.69 -3.29 30.98 62.91 -13.37 6.59 -30.98 -62.91 6.69 -3.3z" />
                        </g>
                        <g>
                            <path class="fil8"
                                d="M2754.98 3736.84l-7.29 -1.25 1.1 -6.99 0.96 -7.29 0.82 -7.57 0.66 -7.82 0.5 -8.06 0.34 -8.26 0.17 -8.44 -0.01 -8.6 -0.19 -8.73 -0.38 -8.84 -0.57 -8.93 -0.77 -8.99 -0.98 -9.02 -1.19 -9.04 -1.4 -9.03 -1.63 -8.99 -1.85 -8.93 -2.09 -8.85 -2.32 -8.74 -2.56 -8.62 -2.82 -8.45 -3.07 -8.28 -3.32 -8.08 -3.59 -7.85 -3.86 -7.6 -4.12 -7.33 -4.4 -7.03 -4.68 -6.71 -4.96 -6.37 -5.25 -6.01 -5.55 -5.62 -5.84 -5.22 4.74 -5.68 6.2 5.53 5.87 5.95 5.54 6.33 5.22 6.69 4.9 7.03 4.59 7.34 4.29 7.61 4 7.88 3.71 8.12 3.43 8.33 3.15 8.52 2.89 8.69 2.63 8.83 2.38 8.95 2.13 9.05 1.89 9.12 1.66 9.18 1.43 9.2 1.21 9.21 0.99 9.19 0.79 9.15 0.58 9.09 0.39 8.99 0.19 8.89 0.01 8.75 -0.17 8.6 -0.34 8.41 -0.51 8.22 -0.67 7.99 -0.83 7.74 -0.98 7.48 -1.13 7.18zm-12.43 13.73l13.69 -5.89 -12.33 -2.1 47.5 -51.56 10.96 10.1 -47.5 51.57 -12.33 -2.1zm0 0l12.33 2.1 -7.79 8.45 -4.54 -10.56zm-20.87 -67.36l6.85 -2.95 27.71 64.42 -13.69 5.89 -27.71 -64.42 6.85 -2.95z" />
                        </g>
                        <g>
                            <path class="fil8"
                                d="M2523.31 5708.17l28.01 -236.51 7.35 0.87 -28.01 236.51 -7.35 -0.87zm-4.37 15.21l13.37 -6.59 -12.42 -1.47 44.79 -53.94 11.47 9.52 -44.79 53.94 -12.42 -1.47zm0 0l12.42 1.47 -7.34 8.84 -5.08 -10.31zm-24.29 -66.2l6.69 -3.29 30.98 62.91 -13.37 6.59 -30.98 -62.91 6.69 -3.3z" />
                        </g>
                        <g>
                            <path class="fil8"
                                d="M2593.15 5140.8l28.01 -236.51 7.35 0.87 -28.01 236.51 -7.35 -0.87zm-4.37 15.21l13.37 -6.59 -12.42 -1.47 44.79 -53.94 11.47 9.52 -44.79 53.94 -12.42 -1.47zm0 0l12.42 1.47 -7.34 8.84 -5.08 -10.31zm-24.29 -66.2l6.69 -3.29 30.98 62.91 -13.37 6.59 -30.98 -62.91 6.69 -3.3z" />
                        </g>
                        <g>
                            <path class="fil8"
                                d="M2724.27 4100.09l28.01 -236.51 7.35 0.87 -28.01 236.51 -7.35 -0.87zm-4.37 15.21l13.37 -6.59 -12.42 -1.47 44.79 -53.94 11.47 9.52 -44.79 53.94 -12.42 -1.47zm0 0l12.42 1.47 -7.34 8.84 -5.08 -10.31zm-24.29 -66.2l6.69 -3.29 30.98 62.91 -13.37 6.59 -30.98 -62.91 6.69 -3.3z" />
                        </g>
                        <g>
                            <path class="fil8"
                                d="M2686.01 6100.03l-24 159.51 -7.31 -1.1 24 -159.51 7.31 1.1zm4.85 -15.07l-13.57 6.16 12.37 1.86 -46.46 52.5 -11.16 -9.88 46.46 -52.5 12.37 1.86zm0 0l-12.37 -1.86 7.62 -8.61 4.75 10.47zm22.2 66.93l-6.79 3.08 -28.99 -63.85 13.57 -6.16 28.99 63.85 -6.79 3.08z" />
                        </g>
                        <g>
                            <path class="fil8"
                                d="M2607.2 6673.3l-27.25 174.02 -7.3 -1.14 27.25 -174.02 7.3 1.14zm4.94 -15.04l-13.61 6.08 12.36 1.93 -46.78 52.22 -11.11 -9.95 46.78 -52.22 12.36 1.93zm0 0l-12.36 -1.93 7.67 -8.57 4.69 10.5zm21.8 67.06l-6.8 3.04 -28.6 -64.02 13.61 -6.08 28.6 64.02 -6.81 3.04z" />
                        </g>
                        <g>
                            <path class="fil8"
                                d="M2846.51 4951.86l-21.3 159.47 -7.33 -0.98 21.3 -159.47 7.33 0.98zm4.6 -15.15l-13.47 6.39 12.4 1.66 -45.59 53.26 -11.32 -9.69 45.59 -53.26 12.4 1.66zm0 0l-12.4 -1.66 7.47 -8.73 4.93 10.38zm23.31 66.55l-6.74 3.19 -30.04 -63.36 13.47 -6.39 30.04 63.36 -6.73 3.19z" />
                        </g>
                        <g>
                            <path class="fil8"
                                d="M2777.36 5525.14l-24.31 173.97 -7.33 -1.02 24.31 -173.97 7.33 1.02zm4.69 -15.12l-13.51 6.31 12.38 1.73 -45.91 52.99 -11.26 -9.76 45.91 -52.98 12.39 1.73zm0 0l-12.39 -1.73 7.53 -8.69 4.86 10.41zm22.9 66.7l-6.75 3.15 -29.66 -63.54 13.51 -6.31 29.66 63.54 -6.75 3.15z" />
                        </g>
                        <g>
                            <path class="fil8"
                                d="M2923 4411.36l-24.31 173.97 -7.33 -1.02 24.31 -173.97 7.33 1.02zm4.69 -15.12l-13.51 6.31 12.38 1.73 -45.91 52.99 -11.26 -9.76 45.91 -52.98 12.39 1.73zm0 0l-12.39 -1.73 7.53 -8.69 4.86 10.41zm22.9 66.7l-6.75 3.15 -29.66 -63.54 13.51 -6.31 29.66 63.54 -6.75 3.15z" />
                        </g>
                        <g>
                            <path class="fil8"
                                d="M3161.38 3669.79l-1.88 7.15 -22.53 -5.23 -20.83 -3.47 -19.18 -1.79 -17.59 -0.21 -16.08 1.27 -14.63 2.67 -13.26 3.97 -11.97 5.19 -10.77 6.32 -9.66 7.39 -8.62 8.38 -7.65 9.31 -6.75 10.17 -5.91 10.96 -5.12 11.67 -4.4 12.3 -3.73 12.85 -3.12 13.32 -2.57 13.7 -2.09 13.99 -1.67 14.2 -1.31 14.32 -1.02 14.36 -0.79 14.32 -0.62 14.19 -0.53 13.98 -0.49 13.68 -0.53 13.31 -0.63 12.85 -0.8 12.31 -1.03 11.7 -1.34 11 -7.32 -1.04 1.3 -10.73 1.01 -11.49 0.79 -12.17 0.63 -12.76 0.53 -13.26 0.49 -13.68 0.53 -14 0.62 -14.25 0.8 -14.41 1.03 -14.5 1.33 -14.49 1.69 -14.41 2.13 -14.24 2.63 -13.99 3.2 -13.66 3.85 -13.25 4.56 -12.76 5.35 -12.18 6.21 -11.52 7.15 -10.77 8.15 -9.92 9.23 -8.98 10.37 -7.92 11.55 -6.78 12.79 -5.54 14.07 -4.22 15.4 -2.81 16.78 -1.33 18.23 0.22 19.74 1.85 21.31 3.55 22.96 5.33zm12.59 13.59l-4.68 -14.16 -3.17 12.1 -47.23 -51.81 11.02 -10.04 47.23 51.81 -3.17 12.1zm0 0l3.17 -12.1 7.74 8.5 -10.91 3.61zm-68.92 14.92l-2.34 -7.08 66.58 -22 4.68 14.16 -66.58 21.99 -2.34 -7.08z" />
                        </g>
                        <g>
                            <path class="fil8"
                                d="M1933.25 3050.63l-175.11 -95.24 3.53 -6.5 175.11 95.24 -3.53 6.5zm12.5 9.71l-1.15 -14.86 -5.97 10.99 -33.46 -61.61 13.1 -7.11 33.46 61.61 -5.97 10.99zm0 0l5.97 -10.99 5.48 10.1 -11.46 0.88zm-70.49 -2.01l-0.57 -7.43 69.91 -5.42 1.15 14.86 -69.91 5.42 -0.58 -7.43z" />
                        </g>
                        <g>
                            <path class="fil8"
                                d="M2277.02 3235.21l-175.11 -95.24 3.53 -6.5 175.11 95.24 -3.53 6.5zm12.5 9.71l-1.15 -14.86 -5.97 10.99 -33.46 -61.61 13.1 -7.11 33.46 61.61 -5.97 10.99zm0 0l5.97 -10.99 5.48 10.1 -11.46 0.88zm-70.49 -2.01l-0.57 -7.43 69.91 -5.42 1.15 14.86 -69.91 5.42 -0.58 -7.43z" />
                        </g>
                        <g>
                            <path class="fil8"
                                d="M2581.84 3380.85l-175.11 -95.24 3.53 -6.5 175.11 95.24 -3.53 6.5zm12.5 9.71l-1.15 -14.86 -5.97 10.99 -33.46 -61.61 13.1 -7.11 33.46 61.61 -5.97 10.99zm0 0l5.97 -10.99 5.48 10.1 -11.46 0.88zm-70.49 -2.01l-0.57 -7.43 69.91 -5.42 1.15 14.86 -69.91 5.42 -0.58 -7.43z" />
                        </g>
                        <g>
                            <path class="fil8"
                                d="M2898.89 3545.74l-175.11 -95.24 3.53 -6.5 175.11 95.24 -3.53 6.5zm12.5 9.71l-1.15 -14.86 -5.97 10.99 -33.46 -61.61 13.1 -7.11 33.46 61.61 -5.97 10.99zm0 0l5.97 -10.99 5.48 10.1 -11.46 0.88zm-70.49 -2.01l-0.57 -7.43 69.91 -5.42 1.15 14.86 -69.91 5.42 -0.58 -7.43z" />
                        </g>
                        <g>
                            <path class="fil8"
                                d="M3194.86 3708.43l-175.11 -95.24 3.53 -6.5 175.11 95.24 -3.53 6.5zm12.5 9.71l-1.15 -14.86 -5.97 10.99 -33.46 -61.61 13.1 -7.11 33.46 61.61 -5.97 10.99zm0 0l5.97 -10.99 5.48 10.1 -11.46 0.88zm-70.49 -2.01l-0.57 -7.43 69.91 -5.42 1.15 14.86 -69.91 5.42 -0.58 -7.43z" />
                        </g>
                        <g>
                            <path class="fil8"
                                d="M3459.04 3834.7l-175.11 -95.24 3.53 -6.5 175.11 95.24 -3.53 6.5zm12.5 9.71l-1.15 -14.86 -5.97 10.99 -33.46 -61.61 13.1 -7.11 33.46 61.61 -5.97 10.99zm0 0l5.97 -10.99 5.48 10.1 -11.46 0.88zm-70.49 -2.01l-0.57 -7.43 69.91 -5.42 1.15 14.86 -69.91 5.42 -0.58 -7.43z" />
                        </g>
                        <g>
                            <path class="fil8"
                                d="M3774.02 4015.38l-175.11 -95.24 3.53 -6.5 175.11 95.24 -3.53 6.5zm12.5 9.71l-1.15 -14.86 -5.97 10.99 -33.46 -61.61 13.1 -7.11 33.46 61.61 -5.97 10.99zm0 0l5.97 -10.99 5.48 10.1 -11.46 0.88zm-70.49 -2.01l-0.57 -7.43 69.91 -5.42 1.15 14.86 -69.91 5.42 -0.58 -7.43z" />
                        </g>
                        <g>
                            <path class="fil8"
                                d="M2123.11 3017.03l175.11 95.24 -3.53 6.5 -175.11 -95.24 3.53 -6.5zm-12.5 -9.71l1.15 14.86 5.97 -10.99 33.46 61.61 -13.1 7.11 -33.46 -61.61 5.97 -10.99zm0 0l-5.97 10.99 -5.48 -10.1 11.46 -0.88zm70.49 2.01l0.57 7.43 -69.91 5.42 -1.15 -14.86 69.91 -5.42 0.58 7.43z" />
                        </g>
                        <g>
                            <path class="fil8"
                                d="M1858.94 2890.77l175.11 95.24 -3.53 6.5 -175.11 -95.24 3.53 -6.5zm-12.5 -9.71l1.15 14.86 5.97 -10.99 33.46 61.61 -13.1 7.11 -33.46 -61.61 5.97 -10.99zm0 0l-5.97 10.99 -5.48 -10.1 11.46 -0.88zm70.49 2.01l0.57 7.43 -69.91 5.42 -1.15 -14.86 69.91 -5.42 0.58 7.43z" />
                        </g>
                        <g>
                            <path class="fil8"
                                d="M1543.96 2710.09l175.11 95.24 -3.53 6.5 -175.11 -95.24 3.53 -6.5zm-12.5 -9.71l1.15 14.86 5.97 -10.99 33.46 61.61 -13.1 7.11 -33.46 -61.61 5.97 -10.99zm0 0l-5.97 10.99 -5.48 -10.1 11.46 -0.88zm70.49 2.01l0.57 7.43 -69.91 5.42 -1.15 -14.86 69.91 -5.42 0.58 7.43z" />
                        </g>
                        <g>
                            <path class="fil8"
                                d="M3054.54 3522.79l175.11 95.24 -3.53 6.5 -175.11 -95.24 3.53 -6.5zm-12.5 -9.71l1.15 14.86 5.97 -10.99 33.46 61.61 -13.1 7.11 -33.46 -61.61 5.97 -10.99zm0 0l-5.97 10.99 -5.48 -10.1 11.46 -0.88zm70.49 2.01l0.57 7.43 -69.91 5.42 -1.15 -14.86 69.91 -5.42 0.58 7.43z" />
                        </g>
                        <g>
                            <path class="fil8"
                                d="M2790.36 3396.52l175.11 95.24 -3.53 6.5 -175.11 -95.24 3.53 -6.5zm-12.5 -9.71l1.15 14.86 5.97 -10.99 33.46 61.61 -13.1 7.11 -33.46 -61.61 5.97 -10.99zm0 0l-5.97 10.99 -5.48 -10.1 11.46 -0.88zm70.49 2.01l0.57 7.43 -69.91 5.42 -1.15 -14.86 69.91 -5.42 0.58 7.43z" />
                        </g>
                        <g>
                            <path class="fil8"
                                d="M2475.38 3215.84l175.11 95.24 -3.53 6.5 -175.11 -95.24 3.53 -6.5zm-12.5 -9.71l1.15 14.86 5.97 -10.99 33.46 61.61 -13.1 7.11 -33.46 -61.61 5.97 -10.99zm0 0l-5.97 10.99 -5.48 -10.1 11.46 -0.88zm70.49 2.01l0.57 7.43 -69.91 5.42 -1.15 -14.86 69.91 -5.42 0.58 7.43z" />
                        </g>
                        <g>
                            <path class="fil8"
                                d="M3677.8 3838.98l175.11 95.24 -3.53 6.5 -175.11 -95.24 3.53 -6.5zm-12.5 -9.71l1.15 14.86 5.97 -10.99 33.46 61.61 -13.1 7.11 -33.46 -61.61 5.97 -10.99zm0 0l-5.97 10.99 -5.48 -10.1 11.46 -0.88zm70.49 2.01l0.57 7.43 -69.91 5.42 -1.15 -14.86 69.91 -5.42 0.58 7.43z" />
                        </g>
                        <g>
                            <path class="fil8"
                                d="M3362.82 3668.95l175.11 95.24 -3.53 6.5 -175.11 -95.24 3.53 -6.5zm-12.5 -9.71l1.15 14.86 5.97 -10.99 33.46 61.61 -13.1 7.11 -33.46 -61.61 5.97 -10.99zm0 0l-5.97 10.99 -5.48 -10.1 11.46 -0.88zm70.49 2.01l0.57 7.43 -69.91 5.42 -1.15 -14.86 69.91 -5.42 0.58 7.43z" />
                        </g>
                        <g>
                            <path class="fil8"
                                d="M1601.08 2877.75l-175.11 -95.24 3.53 -6.5 175.11 95.24 -3.53 6.5zm12.5 9.71l-1.15 -14.86 -5.97 10.99 -33.46 -61.61 13.1 -7.11 33.46 61.61 -5.97 10.99zm0 0l5.97 -10.99 5.48 10.1 -11.46 0.88zm-70.49 -2.01l-0.57 -7.43 69.91 -5.42 1.15 14.86 -69.91 5.42 -0.58 -7.43z" />
                        </g>
                        <g>
                            <path class="fil8"
                                d="M1395.46 2754.59l-3.71 6.4 -5.87 -3.31 -5.62 -2.97 -5.38 -2.65 -5.14 -2.34 -4.9 -2.05 -4.67 -1.78 -4.44 -1.52 -4.2 -1.28 -3.98 -1.05 -3.76 -0.84 -3.55 -0.64 -3.33 -0.46 -3.12 -0.3 -2.92 -0.15 -2.72 -0.02 -2.52 0.1 -2.33 0.21 -2.14 0.29 -1.96 0.36 -1.78 0.42 -1.61 0.46 -1.44 0.49 -1.27 0.5 -1.12 0.5 -0.96 0.48 -0.8 0.45 -0.66 0.41 -0.51 0.35 -0.39 0.29 -0.24 0.19 -0.1 0.09 0.05 -0.05 -5.16 -5.3 0.18 -0.17 0.31 -0.27 0.46 -0.36 0.6 -0.45 0.77 -0.52 0.93 -0.57 1.09 -0.61 1.25 -0.63 1.43 -0.64 1.6 -0.62 1.77 -0.6 1.95 -0.56 2.13 -0.49 2.31 -0.43 2.49 -0.34 2.68 -0.23 2.86 -0.12 3.05 0.02 3.25 0.16 3.44 0.33 3.64 0.5 3.84 0.7 4.05 0.9 4.25 1.12 4.46 1.35 4.68 1.61 4.9 1.87 5.11 2.15 5.34 2.44 5.58 2.75 5.8 3.06 6.04 3.4zm8.51 16.45l-0.74 -14.89 -6.28 10.82 -31.73 -62.52 13.29 -6.75 31.73 62.52 -6.28 10.82zm0 0l6.28 -10.82 5.2 10.25 -11.48 0.57zm-70.4 -3.97l-0.37 -7.45 70.03 -3.47 0.74 14.89 -70.04 3.47 -0.36 -7.45z" />
                        </g>
                        <g>
                            <path class="fil8"
                                d="M3902.57 3972.71l3.25 -6.64 13.9 6.84 12.3 6.05 5.61 2.73 5.3 2.53 5.01 2.32 4.75 2.12 4.52 1.92 4.33 1.72 4.15 1.52 4 1.32 3.89 1.13 3.8 0.92 3.76 0.74 3.74 0.55 3.76 0.36 3.81 0.17 3.91 -0.03 4.02 -0.21 4.18 -0.4 4.38 -0.6 4.59 -0.8 4.84 -0.99 5.12 -1.19 5.43 -1.39 5.77 -1.6 6.13 -1.8 6.52 -2 6.94 -2.2 7.4 -2.4 7.87 -2.61 2.34 7.02 -7.9 2.62 -7.44 2.42 -7.01 2.22 -6.6 2.02 -6.22 1.82 -5.89 1.63 -5.58 1.43 -5.3 1.23 -5.05 1.04 -4.84 0.84 -4.65 0.63 -4.49 0.44 -4.36 0.23 -4.26 0.03 -4.19 -0.18 -4.13 -0.39 -4.11 -0.6 -4.1 -0.8 -4.12 -1.01 -4.18 -1.2 -4.25 -1.4 -4.36 -1.6 -4.49 -1.79 -4.67 -1.98 -4.86 -2.17 -5.1 -2.36 -5.36 -2.55 -5.66 -2.75 -12.32 -6.06 -13.88 -6.83zm-9.65 -15.81l1.79 14.8 5.5 -11.23 36.05 60.13 -12.79 7.66 -36.05 -60.12 5.5 -11.24zm0 0l-5.5 11.24 -5.91 -9.86 11.41 -1.38zm70.51 -0.99l0.89 7.4 -69.62 8.39 -1.79 -14.8 69.62 -8.39 0.89 7.4z" />
                        </g>
                        <g>
                            <path class="fil8"
                                d="M1374.49 2598.16l7.05 -2.22 1.64 4.57 2.02 4.47 2.37 4.37 2.69 4.28 2.98 4.18 3.26 4.07 3.5 3.96 3.72 3.85 3.9 3.73 4.07 3.6 4.2 3.48 4.3 3.34 4.37 3.2 4.42 3.07 4.43 2.92 4.41 2.78 4.37 2.63 4.3 2.47 4.2 2.32 4.06 2.17 3.91 2 3.71 1.84 3.5 1.68 3.25 1.51 2.97 1.34 2.67 1.17 2.34 1 1.96 0.82 1.58 0.64 1.15 0.45 0.71 0.28 0.21 0.08 -2.58 6.93 -0.29 -0.11 -0.75 -0.29 -1.21 -0.48 -1.64 -0.66 -2.03 -0.84 -2.39 -1.02 -2.74 -1.2 -3.04 -1.38 -3.32 -1.55 -3.58 -1.72 -3.8 -1.89 -4 -2.05 -4.16 -2.22 -4.31 -2.38 -4.41 -2.54 -4.5 -2.7 -4.54 -2.86 -4.57 -3.01 -4.56 -3.17 -4.53 -3.32 -4.47 -3.48 -4.38 -3.63 -4.27 -3.77 -4.11 -3.92 -3.94 -4.08 -3.73 -4.22 -3.5 -4.37 -3.23 -4.52 -2.93 -4.67 -2.6 -4.83 -2.24 -4.97 -1.84 -5.12zm4.8 -17.89l-9.49 11.5 11.93 -3.76 -18.69 67.57 -14.37 -3.97 18.69 -67.57 11.93 -3.76zm0 0l-11.93 3.76 3.06 -11.08 8.87 7.32zm49.34 50.38l-4.75 5.75 -54.08 -44.64 9.49 -11.5 54.08 44.64 -4.75 5.75z" />
                        </g>
                        <g>
                            <path class="fil8"
                                d="M2415.82 8352.57l-22.01 148.21 -7.31 -1.09 22.01 -148.21 7.31 1.09zm4.82 -15.08l-13.56 6.19 12.37 1.84 -46.36 52.59 -11.18 -9.86 46.36 -52.59 12.37 1.83zm0 0l-12.37 -1.83 7.6 -8.62 4.77 10.46zm22.33 66.89l-6.78 3.09 -29.11 -63.8 13.56 -6.19 29.11 63.8 -6.78 3.09z" />
                        </g>
                        <g>
                            <path class="fil8"
                                d="M2357.28 8754.57l-25.16 236.48 -7.35 -0.78 25.16 -236.48 7.35 0.78zm4.19 -15.26l-13.29 6.75 12.44 1.32 -44.15 54.46 -11.58 -9.39 44.14 -54.46 12.44 1.32zm0 0l-12.44 -1.32 7.24 -8.93 5.2 10.25zm25.08 65.91l-6.64 3.37 -31.73 -62.53 13.29 -6.75 31.73 62.53 -6.65 3.37z" />
                        </g>
                        <g>
                            <path class="fil8"
                                d="M2287.14 9348.29l-25.16 236.48 -7.35 -0.78 25.16 -236.48 7.35 0.78zm4.19 -15.26l-13.29 6.75 12.44 1.32 -44.15 54.46 -11.58 -9.39 44.14 -54.46 12.44 1.32zm0 0l-12.44 -1.32 7.24 -8.93 5.2 10.25zm25.08 65.91l-6.64 3.37 -31.73 -62.53 13.29 -6.75 31.73 62.53 -6.65 3.37z" />
                        </g>
                        <g>
                            <path class="fil8"
                                d="M2482.66 7773.25l5.99 4.34 -4.95 7.28 -4.67 7.8 -4.39 8.29 -4.13 8.72 -3.85 9.12 -3.61 9.47 -3.35 9.77 -3.11 10.04 -2.88 10.25 -2.65 10.43 -2.44 10.56 -2.23 10.66 -2.03 10.7 -1.84 10.7 -1.66 10.66 -1.49 10.57 -1.33 10.45 -1.17 10.28 -1.03 10.06 -0.9 9.8 -0.78 9.5 -0.65 9.16 -0.55 8.77 -0.45 8.34 -0.36 7.87 -0.29 7.36 -0.21 6.8 -0.16 6.2 -0.1 5.55 -0.06 4.86 -0.03 4.14 -0.01 3.36 -7.4 0 0.01 -3.4 0.03 -4.18 0.06 -4.91 0.1 -5.59 0.16 -6.25 0.22 -6.85 0.29 -7.41 0.36 -7.93 0.45 -8.4 0.55 -8.84 0.66 -9.22 0.78 -9.58 0.91 -9.88 1.04 -10.14 1.18 -10.37 1.35 -10.54 1.51 -10.67 1.68 -10.77 1.86 -10.82 2.06 -10.83 2.26 -10.79 2.47 -10.72 2.7 -10.6 2.93 -10.44 3.17 -10.24 3.43 -9.99 3.69 -9.71 3.97 -9.38 4.26 -9.01 4.56 -8.61 4.88 -8.15 5.2 -7.65zm17.23 -6.79l-14.89 -0.79 10.12 7.35 -65.43 25.18 -5.35 -13.91 65.43 -25.18 10.12 7.35zm0 0l-10.12 -7.35 10.73 -4.13 -0.61 11.48zm-11.15 69.63l-7.44 -0.39 3.7 -70.03 14.89 0.79 -3.7 70.03 -7.45 -0.39z" />
                        </g>
                        <g>
                            <path class="fil8"
                                d="M2547.9 7030.23l7.15 1.89 -2.28 8.86 -2.2 9.08 -2.13 9.29 -2.03 9.47 -1.93 9.63 -1.82 9.76 -1.7 9.87 -1.58 9.95 -1.43 10.02 -1.28 10.05 -1.13 10.06 -0.96 10.04 -0.78 10.01 -0.59 9.95 -0.39 9.86 -0.18 9.75 0.03 9.61 0.26 9.45 0.5 9.26 0.74 9.06 1 8.82 1.25 8.55 1.53 8.27 1.81 7.95 2.1 7.62 2.39 7.26 2.68 6.87 2.99 6.46 3.3 6.02 3.62 5.57 3.94 5.09 4.27 4.61 -5.18 5.27 -4.73 -5.1 -4.33 -5.6 -3.94 -6.05 -3.56 -6.49 -3.19 -6.89 -2.84 -7.27 -2.51 -7.62 -2.19 -7.95 -1.88 -8.26 -1.58 -8.55 -1.3 -8.81 -1.02 -9.05 -0.76 -9.27 -0.51 -9.46 -0.27 -9.63 -0.03 -9.79 0.18 -9.91 0.4 -10.01 0.6 -10.08 0.78 -10.14 0.97 -10.17 1.14 -10.18 1.3 -10.16 1.45 -10.12 1.59 -10.06 1.72 -9.97 1.84 -9.86 1.95 -9.73 2.06 -9.57 2.14 -9.38 2.23 -9.18 2.3 -8.95zm13.61 -12.56l-14.17 4.65 12.1 3.19 -51.89 47.14 -10.02 -11.03 51.89 -47.14 12.1 3.19zm0 0l-12.1 -3.19 8.51 -7.73 3.58 10.92zm14.79 68.95l-7.08 2.32 -21.88 -66.62 14.17 -4.65 21.88 66.62 -7.09 2.33z" />
                        </g>
                        <line class="fil5 str6" x1="2877.83" y1="3714.94" x2="2479.24" y2="7171.02" />
                        <line class="fil5 str6" x1="2357.96" y1="7915.27" x2="2149.32" y2="9807.12" />
                        <line class="fil5 str6" x1="2055.27" y1="10522.26" x2="1939.23" y2="11388.55" />
                        <g>
                            <path class="fil8"
                                d="M1971.78 9931.25l-6.51 -3.5 3.88 -7.21 3.77 -7.03 3.66 -6.86 3.56 -6.7 3.45 -6.54 3.33 -6.4 3.23 -6.26 3.12 -6.12 3.01 -6 2.9 -5.87 2.79 -5.76 2.69 -5.65 2.58 -5.55 2.47 -5.47 2.36 -5.38 2.25 -5.29 2.14 -5.23 2.03 -5.17 1.92 -5.11 1.82 -5.06 1.71 -5.02 1.6 -4.98 1.49 -4.96 1.38 -4.94 1.27 -4.93 1.17 -4.92 1.06 -4.93 0.95 -4.93 0.84 -4.95 0.73 -4.98 0.63 -5.01 0.52 -5.06 7.36 0.68 -0.54 5.22 -0.65 5.17 -0.76 5.14 -0.87 5.12 -0.99 5.09 -1.09 5.08 -1.2 5.07 -1.31 5.07 -1.42 5.08 -1.53 5.09 -1.64 5.11 -1.74 5.14 -1.86 5.18 -1.97 5.21 -2.07 5.26 -2.18 5.32 -2.28 5.39 -2.39 5.45 -2.5 5.53 -2.61 5.62 -2.71 5.71 -2.82 5.81 -2.93 5.92 -3.03 6.04 -3.14 6.16 -3.24 6.28 -3.35 6.42 -3.46 6.57 -3.56 6.72 -3.67 6.88 -3.78 7.04 -3.88 7.22zm-16.17 9.04l14.86 -1.22 -11.01 -5.93 61.46 -33.72 7.17 13.07 -61.46 33.72 -11.01 -5.93zm0 0l11.01 5.93 -10.07 5.53 -0.94 -11.46zm1.71 -70.5l7.43 -0.61 5.72 69.89 -14.86 1.22 -5.72 -69.89 7.43 -0.61z" />
                        </g>
                        <g>
                            <path class="fil8"
                                d="M2164.14 10456.19l5.99 4.34 -4.95 7.28 -4.67 7.8 -4.39 8.29 -4.13 8.72 -3.85 9.12 -3.61 9.47 -3.35 9.77 -3.11 10.04 -2.88 10.25 -2.65 10.43 -2.44 10.56 -2.23 10.66 -2.03 10.7 -1.84 10.7 -1.66 10.66 -1.49 10.57 -1.33 10.45 -1.17 10.28 -1.03 10.06 -0.9 9.8 -0.78 9.5 -0.65 9.16 -0.55 8.77 -0.45 8.34 -0.36 7.87 -0.29 7.36 -0.21 6.8 -0.16 6.2 -0.1 5.55 -0.06 4.86 -0.03 4.14 -0.01 3.36 -7.4 0 0.01 -3.4 0.03 -4.18 0.06 -4.91 0.1 -5.59 0.16 -6.25 0.22 -6.85 0.29 -7.41 0.36 -7.93 0.45 -8.4 0.55 -8.84 0.66 -9.22 0.78 -9.58 0.91 -9.88 1.04 -10.14 1.18 -10.37 1.35 -10.54 1.51 -10.67 1.68 -10.77 1.86 -10.82 2.06 -10.83 2.26 -10.79 2.47 -10.72 2.7 -10.6 2.93 -10.44 3.17 -10.24 3.43 -9.99 3.69 -9.71 3.97 -9.38 4.26 -9.01 4.56 -8.61 4.88 -8.15 5.2 -7.65zm17.23 -6.79l-14.89 -0.79 10.12 7.35 -65.43 25.18 -5.35 -13.91 65.43 -25.18 10.12 7.35zm0 0l-10.12 -7.35 10.73 -4.13 -0.61 11.48zm-11.15 69.63l-7.44 -0.39 3.7 -70.03 14.89 0.79 -3.7 70.03 -7.45 -0.39z" />
                        </g>
                        <g>
                            <path class="fil8"
                                d="M2233.53 9709.5l7.15 1.89 -2.28 8.86 -2.2 9.08 -2.13 9.29 -2.03 9.47 -1.93 9.63 -1.82 9.76 -1.7 9.87 -1.58 9.95 -1.43 10.02 -1.28 10.05 -1.13 10.06 -0.96 10.04 -0.78 10.01 -0.59 9.95 -0.39 9.86 -0.18 9.75 0.03 9.61 0.26 9.45 0.5 9.26 0.74 9.06 1 8.82 1.25 8.55 1.53 8.27 1.81 7.95 2.1 7.62 2.39 7.26 2.68 6.87 2.99 6.46 3.3 6.02 3.62 5.57 3.94 5.09 4.27 4.61 -5.18 5.27 -4.73 -5.1 -4.33 -5.6 -3.94 -6.05 -3.56 -6.49 -3.19 -6.89 -2.84 -7.27 -2.51 -7.62 -2.19 -7.95 -1.88 -8.26 -1.58 -8.55 -1.3 -8.81 -1.02 -9.05 -0.76 -9.27 -0.51 -9.46 -0.27 -9.63 -0.03 -9.79 0.18 -9.91 0.4 -10.01 0.6 -10.08 0.78 -10.14 0.97 -10.17 1.14 -10.18 1.3 -10.16 1.45 -10.12 1.59 -10.06 1.72 -9.97 1.84 -9.86 1.95 -9.73 2.06 -9.57 2.14 -9.38 2.23 -9.18 2.3 -8.95zm13.61 -12.56l-14.17 4.65 12.1 3.19 -51.89 47.14 -10.02 -11.03 51.89 -47.14 12.1 3.19zm0 0l-12.1 -3.19 8.51 -7.73 3.58 10.92zm14.79 68.95l-7.08 2.32 -21.88 -66.62 14.17 -4.65 21.88 66.62 -7.09 2.33z" />
                        </g>
                    </g>
                    <rect class="fil9" transform="matrix(0.905782 0.0696951 -0.0696951 0.905782 928.101 11388.6)"
                        width="824.32" height="362.49" />
                    <rect class="fil10" x="2470.12" y="10587.32" width="184.74" height="891.27" />
                    <polygon id="examination_area" class="fil11 str7"
                        points="639.43,9918.85 1685.4,9918.85 1685.4,11269.71 913.49,11269.71 953.59,10951.36 " />
                    <rect class="fil10" x="1289.07" y="10087.05" width="142.82" height="1069.61" />
                    <g id="Lagoons">
                        <path class="fil5 str8"
                            d="M634.26 10.05l150.56 70.34c0,0 46.26,113.11 327.97,216.78 281.7,103.67 492.44,179.07 577.27,311.03 84.83,131.95 159.3,160.22 386.43,216.78 227.13,56.55 283.05,56.55 395.85,188.5 112.8,131.95 567.96,-154.1 711.92,321.07 56.66,187.01 506.53,68.27 634.75,126.12 490.25,221.18 588.73,600.19 786.44,775.65 320.53,284.45 703.05,290.1 1076.09,338.36l296.92 182.43" />
                        <path class="fil5 str8"
                            d="M634.26 151.03l150.56 70.34c0,0 46.26,113.11 327.97,216.78 281.7,103.67 492.44,179.07 577.27,311.03 84.83,131.95 159.3,160.22 386.43,216.78 227.13,56.55 283.05,56.55 395.85,188.5 112.8,131.95 567.96,-154.1 711.92,321.07 56.66,187.01 506.53,68.27 634.75,126.12 490.25,221.18 588.73,600.19 786.44,775.65 320.53,284.45 703.05,290.1 1076.09,338.36l296.92 182.43" />
                        <path class="fil5 str8"
                            d="M634.26 318.55l150.56 70.34c0,0 46.26,113.11 327.97,216.78 281.7,103.67 492.44,179.07 577.27,311.03 84.83,131.95 159.3,160.22 386.43,216.78 227.13,56.55 283.05,56.55 395.85,188.5 112.8,131.95 567.96,-154.1 711.92,321.07 56.66,187.01 506.53,68.27 634.75,126.12 490.25,221.18 588.73,600.19 786.44,775.65 320.53,284.45 703.05,290.1 1076.09,338.36l296.92 182.43" />
                        <path class="fil5 str8"
                            d="M634.26 498l150.56 70.34c0,0 46.26,113.11 327.97,216.78 281.7,103.67 492.44,179.07 577.27,311.03 84.83,131.95 159.3,160.22 386.43,216.78 227.13,56.55 283.05,56.55 395.85,188.5 112.8,131.95 567.96,-154.1 711.92,321.07 56.66,187.01 506.53,68.27 634.75,126.12 490.25,221.18 588.73,600.19 786.44,775.65 320.53,284.45 703.05,290.1 1076.09,338.36l296.92 182.43" />
                        <path class="fil5 str8"
                            d="M634.26 639l150.56 70.34c0,0 46.26,113.11 327.97,216.78 281.7,103.67 492.44,179.07 577.27,311.03 84.83,131.95 159.3,160.22 386.43,216.78 227.13,56.55 283.05,56.55 395.85,188.5 112.8,131.95 567.96,-154.1 711.92,321.07 56.66,187.01 506.53,68.27 634.75,126.12 490.25,221.18 588.73,600.19 786.44,775.65 320.53,284.45 703.05,290.1 1076.09,338.36l296.92 182.43" />
                    </g>
                    <path id="region3" class="fil12 region str9"
                        d="M3121.58 4120.73l1394.98 561.5 -454.54 3057.21 -1211.79 -184.53c-114.38,-143.04 -114.38,-263.61 -114.38,-429.13l385.73 -3005.04z"
                        onclick="alert('region 3')" />
                    <rect id="power_station" class="fil5 str0" x="566.7" y="7546.43" width="916.3" height="273.21" />
                    <polygon class="fil3 str10"
                        points="53.03,6400.72 158.98,6449.83 288.77,6452.06 367.18,7218.72 136.7,7218.72 " />
                    <rect class="fil10" transform="matrix(1 -0 0.120511 1 135.334 5681.67)" width="144.27"
                        height="574.01" />
                    <rect class="fil10 str11" transform="matrix(0.967625 0.252391 -0.252391 0.967625 302.958 5031.11)"
                        width="175.36" height="601.64" />
                    <polygon class="fil13 str11" points="542.44,4383.4 784.82,4495.19 628.73,5031.11 369.29,4946.95 " />
                    <polygon class="fil14" points="837.46,12248.26 3088.66,12433.46 2996.3,14184.64 719.74,14015.67 " />
                    <rect class="fil12 block" id="block4c"
                        transform="matrix(1.06129 0.479899 -0.392159 1.02669 1056.51 3324.12)" width="997.35"
                        height="997.35" />
                    <rect class="fil12 block" id="block4d"
                        transform="matrix(0.89889 0.398098 -0.23868 0.894092 950.819 4564.95)" width="659.45"
                        height="1911.25" />
                    <rect class="fil12 block" id="block4b"
                        transform="matrix(0.714598 0.294275 -0.22268 1.28298 1991.19 4219.63)" width="659.45"
                        height="1911.25" />
                    <rect class="fil12 block" id="block4a"
                        transform="matrix(1.1992 0.223838 -0.187036 1.20714 635.042 6784.15)" width="935.57"
                        height="392.94" onclick="handleOpenBlock()" />
                </g>
            </svg>