<svg xmlns="http://www.w3.org/2000/svg" xmlns:xlink="http://www.w3.org/1999/xlink" viewBox="0 0 1920 1080" width="1920" height="1080" preserveAspectRatio="xMidYMid meet" style="width: 100%; height: 100%; transform: translate3d(0px, 0px, 0px); content-visibility: visible;" id="Truck"><defs><clipPath id="__lottie_element_6128"><rect width="1920" height="1080" x="0" y="0"/></clipPath><clipPath id="__lottie_element_6142"><path d="M0,0 L1920,0 L1920,1080 L0,1080z"/></clipPath></defs><g clip-path="url(#__lottie_element_6128)"><g transform="matrix(1,0,0,1,187.15203857421875,227.19937133789062)" opacity="1" style="display: block;"><g opacity="1" transform="matrix(1,0,0,1,225.78900146484375,431.0199890136719)"><path fill="rgb(10,10,10)" fill-opacity="1" d=" M-106.71800231933594,100.24700164794922 C-106.71800231933594,100.24700164794922 -73.4800033569336,100.24700164794922 -73.4800033569336,100.24700164794922 C-73.4800033569336,100.24700164794922 73.31900024414062,100.24700164794922 73.31900024414062,100.24700164794922 C73.31900024414062,100.24700164794922 110.01899719238281,105.4020004272461 110.01899719238281,105.4020004272461 C110.01899719238281,105.4020004272461 143.41799926757812,1.4869999885559082 103.78600311279297,-24.586000442504883 C64.15499877929688,-50.65800094604492 -143.41799926757812,-105.4020004272461 -106.71800231933594,100.24700164794922z"/></g><g opacity="1" transform="matrix(1,0,0,1,345.84698486328125,490.3290100097656)"><path fill="rgb(86,86,86)" fill-opacity="1" d=" M7.965000152587891,-49.172000885009766 C7.965000152587891,-49.172000885009766 23.888999938964844,6.239999771118164 21.812999725341797,27.704999923706055 C19.736000061035156,49.172000885009766 0.34599998593330383,45.70899963378906 0.34599998593330383,45.70899963378906 C0.34599998593330383,45.70899963378906 -23.888999938964844,-32.957000732421875 -23.888999938964844,-32.957000732421875 C-23.888999938964844,-32.957000732421875 7.965000152587891,-49.172000885009766 7.965000152587891,-49.172000885009766z"/></g><g opacity="1" transform="matrix(1,0,0,1,906.4929809570312,484.2619934082031)"><path fill="rgb(10,10,10)" fill-opacity="1" d=" M11.751999855041504,27.176000595092773 C11.751999855041504,27.176000595092773 -11.751999855041504,27.176000595092773 -11.751999855041504,27.176000595092773 C-11.751999855041504,27.176000595092773 -11.751999855041504,-27.176000595092773 -11.751999855041504,-27.176000595092773 C-11.751999855041504,-27.176000595092773 11.751999855041504,-27.176000595092773 11.751999855041504,-27.176000595092773 C11.751999855041504,-27.176000595092773 11.751999855041504,27.176000595092773 11.751999855041504,27.176000595092773z"/></g><g opacity="1" transform="matrix(1,0,0,1,899.1480102539062,498.21600341796875)"><path fill="rgb(10,10,10)" fill-opacity="1" d=" M27.174999237060547,13.220999717712402 C27.174999237060547,13.220999717712402 -27.174999237060547,13.220999717712402 -27.174999237060547,13.220999717712402 C-27.174999237060547,13.220999717712402 -27.174999237060547,-13.220000267028809 -27.174999237060547,-13.220000267028809 C-27.174999237060547,-13.220000267028809 27.174999237060547,-13.220000267028809 27.174999237060547,-13.220000267028809 C27.174999237060547,-13.220000267028809 27.174999237060547,13.220999717712402 27.174999237060547,13.220999717712402z"/></g><g opacity="1" transform="matrix(1,0,0,1,1206.3599853515625,485.54400634765625)"><path fill="rgb(10,10,10)" fill-opacity="1" d=" M-58.05400085449219,-44.95199966430664 C-58.05400085449219,-44.95199966430664 -93.30500030517578,-36.2140007019043 -96.78099822998047,12.772000312805176 C-100.25599670410156,61.75699996948242 -93.38899993896484,52.20100021362305 -93.38899993896484,52.20100021362305 C-93.38899993896484,52.20100021362305 -72.25700378417969,56.97700119018555 -72.25700378417969,56.97700119018555 C-72.25700378417969,56.97700119018555 72.14900207519531,55.38800048828125 72.14900207519531,55.38800048828125 C72.14900207519531,55.38800048828125 79.7239990234375,57.189998626708984 79.7239990234375,57.189998626708984 C79.7239990234375,57.189998626708984 82.71499633789062,60.4109992980957 82.71499633789062,60.4109992980957 C82.71499633789062,60.4109992980957 89.87300109863281,60.4109992980957 89.87300109863281,60.4109992980957 C89.87300109863281,60.4109992980957 100.25700378417969,-28.14699935913086 40.525001525878906,-44.95199966430664 C-19.204999923706055,-61.75699996948242 -58.05400085449219,-44.95199966430664 -58.05400085449219,-44.95199966430664z"/></g><g opacity="1" transform="matrix(1,0,0,1,1025.6610107421875,488.93798828125)"><path fill="rgb(10,10,10)" fill-opacity="1" d=" M-83.43099975585938,51.35499954223633 C-83.43099975585938,51.35499954223633 -102.39399719238281,-49.45800018310547 -20.857999801635742,-53.56700134277344 C60.67900085449219,-57.67599868774414 55.62300109863281,-46.6150016784668 55.62300109863281,-46.6150016784668 C55.62300109863281,-46.6150016784668 102.3949966430664,-12.166000366210938 91.96700286865234,57.676998138427734 C91.96700286865234,57.676998138427734 82.4209976196289,53.25199890136719 82.4209976196289,53.25199890136719 C82.4209976196289,53.25199890136719 -83.43099975585938,51.35499954223633 -83.43099975585938,51.35499954223633z"/></g><g opacity="1" transform="matrix(1,0,0,1,936.958984375,424.322998046875)"><path fill="rgb(35,35,36)" fill-opacity="1" d=" M-580.6069946289062,-32.777000427246094 C-580.6069946289062,-32.777000427246094 488.406005859375,-26.31100082397461 488.406005859375,-26.31100082397461 C488.406005859375,-26.31100082397461 546.822021484375,-2.306999921798706 580.6069946289062,-0.460999995470047 C580.6069946289062,-0.460999995470047 580.6069946289062,27.23699951171875 580.6069946289062,27.23699951171875 C580.6069946289062,27.23699951171875 -569.6489868164062,32.7760009765625 -569.6489868164062,32.7760009765625 C-569.6489868164062,32.7760009765625 -580.6069946289062,-32.777000427246094 -580.6069946289062,-32.777000427246094z"/></g><g opacity="1" transform="matrix(1,0,0,1,635.4769897460938,476.54998779296875)"><path fill="rgb(121,123,123)" fill-opacity="1" d=" M246.77999877929688,29.01099967956543 C246.77999877929688,29.01099967956543 -246.77999877929688,29.01099967956543 -246.77999877929688,29.01099967956543 C-246.77999877929688,29.01099967956543 -246.77999877929688,-29.01099967956543 -246.77999877929688,-29.01099967956543 C-246.77999877929688,-29.01099967956543 246.77999877929688,-29.01099967956543 246.77999877929688,-29.01099967956543 C246.77999877929688,-29.01099967956543 246.77999877929688,29.01099967956543 246.77999877929688,29.01099967956543z"/></g><g opacity="1" transform="matrix(1,0,0,1,197.2790069580078,441.1570129394531)"><path fill="rgb(86,86,86)" fill-opacity="1" d=" M173.75900268554688,-67.28900146484375 C173.75900268554688,-67.28900146484375 178.61300659179688,20.297000885009766 173.7310028076172,20.945999145507812 C168.8489990234375,21.597999572753906 135.95899963378906,20.79400062561035 135.95899963378906,20.79400062561035 C135.95899963378906,20.79400062561035 131.39500427246094,24.624000549316406 131.39500427246094,24.624000549316406 C131.39500427246094,24.624000549316406 127.76499938964844,26.214000701904297 127.76499938964844,26.214000701904297 C127.76499938964844,26.214000701904297 83.86499786376953,-22.30500030517578 83.86499786376953,-22.30500030517578 C83.86499786376953,-22.30500030517578 -32.01499938964844,-20.85099983215332 -32.01499938964844,-20.85099983215332 C-32.01499938964844,-20.85099983215332 -71.07599639892578,28.483999252319336 -71.07599639892578,28.483999252319336 C-71.07599639892578,28.483999252319336 -81.16699981689453,84.49500274658203 -81.16699981689453,84.49500274658203 C-81.16699981689453,84.49500274658203 -157.14700317382812,84.49500274658203 -157.14700317382812,84.49500274658203 C-157.14700317382812,84.49500274658203 -173.0189971923828,66.56099700927734 -173.0189971923828,66.56099700927734 C-173.0189971923828,66.56099700927734 -178.61300659179688,38.220001220703125 -178.61300659179688,38.220001220703125 C-178.61300659179688,38.220001220703125 -178.61300659179688,-21.450000762939453 -178.61300659179688,-21.450000762939453 C-178.61300659179688,-21.450000762939453 -66.21399688720703,-84.49500274658203 -66.21399688720703,-84.49500274658203 C-66.21399688720703,-84.49500274658203 173.75900268554688,-67.28900146484375 173.75900268554688,-67.28900146484375z"/></g><g opacity="1" transform="matrix(1,0,0,1,21.979999542236328,244.927001953125)"><path fill="rgb(121,149,158)" fill-opacity="1" d=" M-4.139999866485596,-55.18600082397461 C-6.208000183105469,-33.152000427246094 -11.237000465393066,25.28700065612793 -8.210000038146973,55.18600082397461 C-8.210000038146973,55.18600082397461 11.237000465393066,46.64699935913086 11.237000465393066,46.64699935913086 C11.237000465393066,46.64699935913086 11.237000465393066,-55.18600082397461 11.237000465393066,-55.18600082397461 C11.237000465393066,-55.18600082397461 -4.139999866485596,-55.18600082397461 -4.139999866485596,-55.18600082397461z"/></g><g opacity="1" transform="matrix(1,0,0,1,29.617000579833984,236.25100708007812)"><path fill="rgb(0,82,109)" fill-opacity="1" d=" M11.777000427246094,-55.32400131225586 C11.777000427246094,-55.32400131225586 -10.95199966430664,-55.32400131225586 -10.95199966430664,-55.32400131225586 C-10.95199966430664,-55.32400131225586 -11.279000282287598,-50.91600036621094 -11.777000427246094,-46.5099983215332 C-11.777000427246094,-46.5099983215332 3.5999999046325684,-46.5099983215332 3.5999999046325684,-46.5099983215332 C3.5999999046325684,-46.5099983215332 3.5999999046325684,55.32400131225586 3.5999999046325684,55.32400131225586 C3.5999999046325684,55.32400131225586 9.513999938964844,52.42499923706055 9.513999938964844,52.42499923706055 C9.513999938964844,52.42499923706055 11.777000427246094,-55.32400131225586 11.777000427246094,-55.32400131225586z"/></g><g opacity="1" transform="matrix(1,0,0,1,22.128000259399414,176.6580047607422)"><path fill="rgb(86,86,86)" fill-opacity="1" d=" M-3.7170000076293945,-9.001999855041504 C-3.7170000076293945,-9.001999855041504 -13.848999977111816,9.001999855041504 -13.848999977111816,9.001999855041504 C-13.848999977111816,9.001999855041504 9.98799991607666,9.001999855041504 9.98799991607666,9.001999855041504 C9.98799991607666,9.001999855041504 13.848999977111816,-9.001999855041504 13.848999977111816,-9.001999855041504 C13.848999977111816,-9.001999855041504 -3.7170000076293945,-9.001999855041504 -3.7170000076293945,-9.001999855041504z"/></g><g opacity="1" transform="matrix(1,0,0,1,175.0679931640625,228.89500427246094)"><path fill="rgb(195,204,207)" fill-opacity="1" d=" M174.8179931640625,-66.78399658203125 C174.8179931640625,-66.78399658203125 92.18599700927734,-195.13800048828125 92.18599700927734,-195.13800048828125 C92.18599700927734,-195.13800048828125 79.73899841308594,-194.18899536132812 79.73899841308594,-194.18899536132812 C73.36000061035156,-194.18899536132812 61.36399841308594,-195.13800048828125 46.10900115966797,-195.13800048828125 C-7.107999801635742,-195.13999938964844 -99.96199798583984,-189.2689971923828 -132.16600036621094,-150.6199951171875 C-171.0229949951172,-103.98899841308594 -149.7100067138672,-73.92900085449219 -149.7100067138672,-73.92900085449219 C-149.7100067138672,-73.92900085449219 -156.6580047607422,-61.922000885009766 -156.6580047607422,-61.922000885009766 C-156.6580047607422,-61.922000885009766 -139.09300231933594,-61.922000885009766 -139.09300231933594,-61.922000885009766 C-139.09300231933594,-61.922000885009766 -142.95199584960938,-42.82600021362305 -142.95199584960938,-42.82600021362305 C-142.95199584960938,-42.82600021362305 -138.1790008544922,-42.82600021362305 -138.1790008544922,-42.82600021362305 C-138.1790008544922,-42.82600021362305 -138.1790008544922,53.70800018310547 -138.1790008544922,53.70800018310547 C-138.1790008544922,53.70800018310547 -165.98699951171875,60.191001892089844 -167.3719940185547,70.80899810791016 C-168.75599670410156,81.427001953125 -166.9080047607422,140.99899291992188 -166.9080047607422,140.99899291992188 C-166.9080047607422,140.99899291992188 -167.05299377441406,141.0019989013672 -167.3820037841797,141.0019989013672 C-168.9669952392578,141.0019989013672 -173.4290008544922,142.03900146484375 -171.8979949951172,153.1300048828125 C-170.0500030517578,166.5189971923828 -174.81900024414062,182.93600463867188 -172.19700622558594,186.16600036621094 C-169.57400512695312,189.3979949951172 -166.7899932861328,195.13999938964844 -166.7899932861328,195.13999938964844 C-166.7899932861328,195.13999938964844 -62.92300033569336,195.13999938964844 -62.92300033569336,195.13999938964844 C-62.92300033569336,195.13999938964844 -38.2859992980957,162.97300720214844 -21.30500030517578,159.36599731445312 C-4.324999809265137,155.75900268554688 50.527000427246094,155.0449981689453 50.527000427246094,155.0449981689453 C50.527000427246094,155.0449981689453 147.19900512695312,148.8470001220703 147.19900512695312,148.8470001220703 C147.19900512695312,148.8470001220703 157.3509979248047,148.1060028076172 157.2760009765625,146.03799438476562 C155.48399353027344,146.0240020751953 157.73599243164062,140.03199768066406 157.73599243164062,140.03199768066406 C157.73599243164062,140.03199768066406 174.8179931640625,-66.78399658203125 174.8179931640625,-66.78399658203125z"/></g><g opacity="1" transform="matrix(1,0,0,1,326.13800048828125,190.92300415039062)"><path fill="rgb(195,204,207)" fill-opacity="1" d=" M45.44499969482422,-180.2220001220703 C34.36600112915039,-187.14599609375 6.206999778747559,-171.91200256347656 -7.181000232696533,-166.8350067138672 C-20.56800079345703,-161.75900268554688 -29.339000701904297,-159.91000366210938 -43.64899826049805,-159.44700622558594 C-51.03799819946289,-159.20799255371094 -58.159000396728516,-158.43099975585938 -63.33599853515625,-157.73599243164062 C-63.33599853515625,-157.73599243164062 -63.51300048828125,-155.9409942626953 -63.51300048828125,-155.9409942626953 C-65.29399871826172,-137.677001953125 -35.553001403808594,-50.91999816894531 -32.08599853515625,-45.527000427246094 C-27.698999404907227,-38.70000076293945 -26.222000122070312,-31.475000381469727 -26.160999298095703,-31.17300033569336 C-26.160999298095703,-31.17300033569336 -26.14900016784668,-31.114999771118164 -26.14900016784668,-31.114999771118164 C-26.14900016784668,-31.114999771118164 -26.138999938964844,-31.05299949645996 -26.138999938964844,-31.05299949645996 C-25.982999801635742,-30.04199981689453 -10.416000366210938,70.19300079345703 -7.235000133514404,86.10600280761719 C-4.307000160217285,100.74199676513672 -1.6670000553131104,170.84800720214844 -1.0989999771118164,186.81900024414062 C12.848999977111816,186.9219970703125 48.48500061035156,187.14500427246094 55.138999938964844,186.77499389648438 C63.448001861572266,186.31199645996094 61.60200119018555,179.38800048828125 61.60200119018555,179.38800048828125 C61.60200119018555,179.38800048828125 58.832000732421875,-77.27799987792969 62.0629997253418,-106.8219985961914 C65.29399871826172,-136.36700439453125 56.525001525878906,-173.29800415039062 45.44499969482422,-180.2220001220703z"/></g><g opacity="1" transform="matrix(1,0,0,1,24.16900062561035,491.7879943847656)"><path fill="rgb(0,82,109)" fill-opacity="1" d=" M-17.274999618530273,-44.25 C-17.274999618530273,-44.25 17.86199951171875,-44.25 17.86199951171875,-44.25 C17.86199951171875,-44.25 17.86199951171875,44.25 17.86199951171875,44.25 C17.86199951171875,44.25 -2.239000082015991,43.57600021362305 -10.050999641418457,31.857999801635742 C-17.86199951171875,20.138999938964844 -17.240999221801758,2.0199999809265137 -17.240999221801758,2.0199999809265137 C-17.240999221801758,2.0199999809265137 -17.274999618530273,-44.25 -17.274999618530273,-44.25z"/></g><g opacity="1" transform="matrix(1,0,0,1,22.93600082397461,467.0010070800781)"><path fill="rgb(5,192,255)" fill-opacity="1" d=" M13.220000267028809,4.039999961853027 C13.220000267028809,4.039999961853027 -13.220000267028809,4.039999961853027 -13.220000267028809,4.039999961853027 C-13.220000267028809,4.039999961853027 -13.220000267028809,-4.039000034332275 -13.220000267028809,-4.039000034332275 C-13.220000267028809,-4.039000034332275 13.220000267028809,-4.039000034332275 13.220000267028809,-4.039000034332275 C13.220000267028809,-4.039000034332275 13.220000267028809,4.039999961853027 13.220000267028809,4.039999961853027z"/></g><g opacity="1" transform="matrix(1,0,0,1,222.87600708007812,473.2439880371094)"><path fill="rgb(38,38,38)" fill-opacity="1" d=" M-109.34500122070312,62.43000030517578 C-109.34500122070312,62.43000030517578 -98.26599884033203,62.43000030517578 -98.26599884033203,62.43000030517578 C-98.26599884033203,62.43000030517578 -92.44300079345703,-1.9889999628067017 -92.44300079345703,-1.9889999628067017 C-92.44300079345703,-1.9889999628067017 -57.939998626708984,-46.27199935913086 -57.939998626708984,-46.27199935913086 C-57.939998626708984,-46.27199935913086 56.84299850463867,-46.27199935913086 56.84299850463867,-46.27199935913086 C56.84299850463867,-46.27199935913086 108.39399719238281,-21.298999786376953 108.39399719238281,62.43000030517578 C108.39399719238281,62.43000030517578 123.31700134277344,62.43000030517578 123.31700134277344,62.43000030517578 C123.31700134277344,62.43000030517578 116.85700225830078,-43.33399963378906 60.54399871826172,-62.43000030517578 C60.54399871826172,-62.43000030517578 -56.71900177001953,-62.43000030517578 -56.71900177001953,-62.43000030517578 C-56.71900177001953,-62.43000030517578 -123.31700134277344,-22.034000396728516 -109.34500122070312,62.43000030517578z"/></g><g opacity="1" transform="matrix(1,0,0,1,108.33300018310547,224.6490020751953)"><path fill="rgb(0,82,109)" fill-opacity="1" d=" M-21.11400032043457,-57.67599868774414 C-21.11400032043457,-57.67599868774414 -53.959999084472656,-57.63399887084961 -60.4739990234375,-48.6150016784668 C-66.98999786376953,-39.59600067138672 -68.83899688720703,25.368000030517578 -64.8290023803711,52.926998138427734 C-64.8290023803711,52.926998138427734 -62.70399856567383,57.67599868774414 -62.70399856567383,57.67599868774414 C-62.70399856567383,57.67599868774414 68.83899688720703,38.564998626708984 68.83899688720703,38.564998626708984 C68.83899688720703,38.564998626708984 68.83899688720703,-57.67599868774414 68.83899688720703,-57.67599868774414 C68.83899688720703,-57.67599868774414 -21.11400032043457,-57.67599868774414 -21.11400032043457,-57.67599868774414z"/></g><g opacity="1" transform="matrix(1,0,0,1,103.79399871826172,221.52999877929688)"><path fill="rgb(121,149,158)" fill-opacity="1" d=" M64.56400299072266,-48.33399963378906 C64.56400299072266,-48.33399963378906 64.56400299072266,36.14500045776367 64.56400299072266,36.14500045776367 C64.56400299072266,36.14500045776367 -56.2130012512207,53.362998962402344 -56.2130012512207,53.362998962402344 C-56.2130012512207,53.362998962402344 -64.56400299072266,-28.30900001525879 -49.86800003051758,-40.83599853515625 C-35.16999816894531,-53.362998962402344 64.56400299072266,-48.33399963378906 64.56400299072266,-48.33399963378906z"/></g><g opacity="1" transform="matrix(1,0,0,1,45.654998779296875,284.6180114746094)"><path fill="rgb(0,82,109)" fill-opacity="1" d=" M1.3170000314712524,9.253999710083008 C1.3170000314712524,9.253999710083008 4.454999923706055,3.813999891281128 3.3329999446868896,-2.9549999237060547 C2.2100000381469727,-9.725000381469727 -4.341000080108643,0.0949999988079071 -4.26200008392334,4.908999919891357 C-4.182000160217285,9.725000381469727 -4.454999923706055,9.253999710083008 1.3170000314712524,9.253999710083008z"/></g><g opacity="1" transform="matrix(1,0,0,1,46.06999969482422,258.3630065917969)"><path fill="rgb(35,35,36)" fill-opacity="1" d=" M9.180999755859375,31.163000106811523 C9.180999755859375,31.163000106811523 9.180999755859375,-31.163000106811523 9.180999755859375,-31.163000106811523 C9.180999755859375,-31.163000106811523 -0.39899998903274536,-31.163000106811523 -0.39899998903274536,-31.163000106811523 C-0.39899998903274536,-31.163000106811523 -8.411999702453613,-17.565000534057617 -7.4720001220703125,-2.065000057220459 C-6.5320000648498535,13.434000015258789 -9.180999755859375,31.163000106811523 9.180999755859375,31.163000106811523z"/></g><g opacity="1" transform="matrix(1,0,0,1,234.9600067138672,210.51499938964844)"><path fill="rgb(121,149,158)" fill-opacity="1" d=" M-47.90299987792969,-45.31999969482422 C-47.90299987792969,-45.31999969482422 -38.14500045776367,38.2760009765625 -39.03300094604492,50.01599884033203 C-39.03300094604492,50.01599884033203 21.601999282836914,43.909000396728516 34.750999450683594,28.881999969482422 C47.902000427246094,13.854000091552734 39.91699981689453,-40.624000549316406 31.93400001525879,-45.31999969482422 C23.951000213623047,-50.01599884033203 -47.90299987792969,-45.31999969482422 -47.90299987792969,-45.31999969482422z"/></g><g opacity="1" transform="matrix(1,0,0,1,234.95899963378906,211.81900024414062)"><path fill="rgb(0,82,109)" fill-opacity="1" d=" M7.688000202178955,-45.94200134277344 C26.194000244140625,-45.94200134277344 29.85099983215332,-44.63600158691406 30.530000686645508,-44.23699951171875 C31.7450008392334,-43.520999908447266 34.98400115966797,-37.525001525878906 37.242000579833984,-23.554000854492188 C40.137001037597656,-5.631999969482422 39.93899917602539,17.444000244140625 32.66899871826172,25.753000259399414 C23.054000854492188,36.7400016784668 -17.722999572753906,43.48699951171875 -36.222999572753906,45.62099838256836 C-36.560001373291016,28.454999923706055 -43.20399856567383,-30.062999725341797 -44.814998626708984,-44.04100036621094 C-36.41299819946289,-44.54499816894531 -11.482000350952148,-45.94200134277344 7.688000202178955,-45.94200134277344z M7.688000202178955,-48.71200180053711 C-15.967000007629395,-48.71200180053711 -47.902000427246094,-46.624000549316406 -47.902000427246094,-46.624000549316406 C-47.902000427246094,-46.624000549316406 -38.14500045776367,36.97200012207031 -39.03300094604492,48.71200180053711 C-39.03300094604492,48.71200180053711 21.60300064086914,42.604000091552734 34.75199890136719,27.57699966430664 C47.902000427246094,12.548999786376953 39.917999267578125,-41.928001403808594 31.934999465942383,-46.624000549316406 C29.27400016784668,-48.18899917602539 19.513999938964844,-48.71200180053711 7.688000202178955,-48.71200180053711z"/></g><g opacity="1" transform="matrix(1,0,0,1,163.3070068359375,346.3179931640625)"><path fill="rgb(56,56,56)" fill-opacity="1" d=" M-16.802000045776367,9.373000144958496 C-16.802000045776367,9.373000144958496 -6.105999946594238,-9.6850004196167 5.61899995803833,-9.6850004196167 C5.61899995803833,-9.6850004196167 16.802000045776367,-9.6850004196167 16.802000045776367,-9.6850004196167 C16.802000045776367,-9.6850004196167 16.802000045776367,9.684000015258789 16.802000045776367,9.684000015258789 C16.802000045776367,9.684000015258789 -16.802000045776367,9.373000144958496 -16.802000045776367,9.373000144958496z"/></g><g opacity="1" transform="matrix(1,0,0,1,19.007999420166016,363.2569885253906)"><path fill="rgb(9,181,245)" fill-opacity="1" d=" M10.57800006866455,-6.63700008392334 C10.57800006866455,-6.63700008392334 14.210000038146973,2.7260000705718994 -10.76200008392334,6.638000011444092 C-10.76200008392334,6.638000011444092 -10.76200008392334,2.440999984741211 -10.76200008392334,2.440999984741211 C-10.76200008392334,2.440999984741211 4.4070000648498535,5.146999835968018 10.57800006866455,-6.63700008392334z"/></g><g opacity="1" transform="matrix(1,0,0,1,162.70599365234375,296.9410095214844)"><path fill="rgb(9,181,245)" fill-opacity="1" d=" M-149.88400268554688,17.58300018310547 C-149.88400268554688,17.58300018310547 -149.0919952392578,16.697999954223633 -147.32000732421875,15.331999778747559 C-146.8679962158203,15.005000114440918 -146.36399841308594,14.638999938964844 -145.8070068359375,14.236000061035156 C-145.26400756835938,13.810999870300293 -144.6280059814453,13.414999961853027 -143.92100524902344,13.017999649047852 C-142.51600646972656,12.215999603271484 -140.9499969482422,11.17199993133545 -139.01400756835938,10.385000228881836 C-137.11000061035156,9.531000137329102 -135.031005859375,8.480999946594238 -132.61900329589844,7.745999813079834 C-130.23599243164062,6.940000057220459 -127.68399810791016,5.932000160217285 -124.83300018310547,5.335000038146973 C-119.21700286865234,3.740000009536743 -112.69999694824219,2.760999917984009 -105.58999633789062,1.875 C-98.50499725341797,1.190999984741211 -90.83100128173828,0.45100000500679016 -82.71399688720703,-0.3319999873638153 C-74.59200286865234,-1.0759999752044678 -66.02999877929688,-1.8619999885559082 -57.17100143432617,-2.677000045776367 C-48.310001373291016,-3.4519999027252197 -39.152000427246094,-4.252999782562256 -29.84600067138672,-5.065000057220459 C-20.538000106811523,-5.8420000076293945 -11.081999778747559,-6.63100004196167 -1.6260000467300415,-7.418000221252441 C7.834000110626221,-8.15999984741211 17.29599952697754,-8.901000022888184 26.608999252319336,-9.631999969482422 C35.92399978637695,-10.324999809265137 45.090999603271484,-11.006999969482422 53.9630012512207,-11.666999816894531 C71.70899963378906,-12.954999923706055 88.28099822998047,-14.069999694824219 102.49099731445312,-14.949000358581543 C116.697998046875,-15.864999771118164 128.552001953125,-16.44300079345703 136.84300231933594,-16.934999465942383 C140.99200439453125,-17.143999099731445 144.2519989013672,-17.30900001525879 146.47300720214844,-17.42099952697754 C148.69700622558594,-17.527000427246094 149.88400268554688,-17.58300018310547 149.88400268554688,-17.58300018310547 C149.88400268554688,-17.58300018310547 148.7030029296875,-17.448999404907227 146.49400329589844,-17.195999145507812 C144.2830047607422,-16.951000213623047 141.0399932861328,-16.589000701904297 136.91299438476562,-16.128999710083008 C128.6529998779297,-15.282999992370605 116.86299896240234,-13.951000213623047 102.6969985961914,-12.571999549865723 C88.53099822998047,-11.157999992370605 71.99800109863281,-9.598999977111816 54.27799987792969,-8.020000457763672 C45.415000915527344,-7.245999813079834 36.25699996948242,-6.446000099182129 26.951000213623047,-5.632999897003174 C17.64299964904785,-4.859000205993652 8.187999725341797,-4.070000171661377 -1.2690000534057617,-3.2829999923706055 C-10.729000091552734,-2.5420000553131104 -20.187999725341797,-1.8020000457763672 -29.50200080871582,-1.0729999542236328 C-38.81700134277344,-0.3799999952316284 -47.986000061035156,0.29899999499320984 -56.85599899291992,0.9580000042915344 C-65.73300170898438,1.5789999961853027 -74.31300354003906,2.178999900817871 -82.4469985961914,2.746999979019165 C-90.58599853515625,3.2769999504089355 -98.28099822998047,3.7790000438690186 -105.38400268554688,4.242000102996826 C-112.41600036621094,4.9029998779296875 -118.87200164794922,5.539000034332275 -124.4729995727539,6.828999996185303 C-127.32099914550781,7.2789998054504395 -129.86099243164062,8.14799976348877 -132.2550048828125,8.826000213623047 C-134.67599487304688,9.437999725341797 -136.76100158691406,10.369000434875488 -138.6840057373047,11.119000434875488 C-142.50799560546875,12.668999671936035 -145.33700561523438,14.293999671936035 -147.18800354003906,15.513999938964844 C-149.0279998779297,16.746000289916992 -149.88400268554688,17.58300018310547 -149.88400268554688,17.58300018310547z"/></g><g opacity="1" transform="matrix(1,0,0,1,115.85800170898438,290.92999267578125)"><path fill="rgb(0,82,109)" fill-opacity="1" d=" M-81.26399993896484,132.93299865722656 C-81.26599884033203,130.88099670410156 -81.45099639892578,-72.52400207519531 -81.26399993896484,-97.5260009765625 C-81.072998046875,-123.32599639892578 -71.61499786376953,-128.81500244140625 -71.21399688720703,-129.03700256347656 C-71.21399688720703,-129.03700256347656 -70.91899871826172,-129.19700622558594 -70.91899871826172,-129.19700622558594 C-70.91899871826172,-129.19700622558594 -70.58300018310547,-129.20799255371094 -70.58300018310547,-129.20799255371094 C-70.58300018310547,-129.20799255371094 66.08599853515625,-132.93299865722656 66.08599853515625,-132.93299865722656 C66.08599853515625,-132.93299865722656 66.177001953125,-131.60699462890625 66.177001953125,-131.60699462890625 C66.177001953125,-131.60699462890625 81.4520034790039,93.66400146484375 81.4520034790039,93.66400146484375 C81.4520034790039,93.66400146484375 78.68599700927734,93.85199737548828 78.68599700927734,93.85199737548828 C78.68599700927734,93.85199737548828 63.50400161743164,-130.09300231933594 63.50400161743164,-130.09300231933594 C63.50400161743164,-130.09300231933594 -70.10700225830078,-126.447998046875 -70.10700225830078,-126.447998046875 C-71.45500183105469,-125.4280014038086 -78.33300018310547,-119.15899658203125 -78.49500274658203,-97.50499725341797 C-78.68099975585938,-72.51499938964844 -78.49600219726562,130.8780059814453 -78.49500274658203,132.92999267578125 C-78.49500274658203,132.92999267578125 -81.26399993896484,132.93299865722656 -81.26399993896484,132.93299865722656z"/></g><g opacity="1" transform="matrix(1,0,0,1,203.19700622558594,77.81999969482422)"><path fill="rgb(212,218,221)" fill-opacity="1" d=" M-169.99000549316406,13.579000473022461 C-169.99000549316406,13.579000473022461 -164.65499877929688,13.277999877929688 -155.31900024414062,12.75 C-145.98500061035156,12.258000373840332 -132.65199279785156,11.552000045776367 -116.65299987792969,10.708000183105469 C-100.65799713134766,9.881999969482422 -81.9990005493164,8.918999671936035 -62.00600051879883,7.886000156402588 C-52.01300048828125,7.3470001220703125 -41.68899917602539,6.791999816894531 -31.197999954223633,6.2270002365112305 C-20.70599937438965,5.677999973297119 -10.053000450134277,5.054999828338623 0.597000002861023,4.390999794006348 C11.25,3.7829999923706055 21.89900016784668,3.114000082015991 32.375999450683594,2.4070000648498535 C37.61399841308594,2.0429999828338623 42.810001373291016,1.6820000410079956 47.94499969482422,1.3250000476837158 C53.07600021362305,0.9430000185966492 58.14500045776367,0.5680000185966492 63.130001068115234,0.1979999989271164 C73.09400177001953,-0.6190000176429749 82.73100280761719,-1.3769999742507935 91.85299682617188,-2.2339999675750732 C96.41200256347656,-2.677000045776367 100.85199737548828,-3.0759999752044678 105.13500213623047,-3.546999931335449 C109.4209976196289,-3.99399995803833 113.56999969482422,-4.388999938964844 117.53399658203125,-4.886000156402588 C121.50299835205078,-5.355999946594238 125.31099700927734,-5.793000221252441 128.91600036621094,-6.298999786376953 C132.52499389648438,-6.781000137329102 135.96099853515625,-7.190999984741211 139.16299438476562,-7.723999977111816 C145.58700561523438,-8.675000190734863 151.15499877929688,-9.690999984741211 155.73699951171875,-10.569999694824219 C158.01499938964844,-11.067000389099121 160.05099487304688,-11.510000228881836 161.81900024414062,-11.895000457763672 C163.60499572753906,-12.239999771118164 165.06500244140625,-12.732000350952148 166.28199768066406,-13.029000282287598 C168.69900512695312,-13.682999610900879 169.99000549316406,-14.031000137329102 169.99000549316406,-14.031000137329102 C169.99000549316406,-14.031000137329102 168.7310028076172,-13.583000183105469 166.3699951171875,-12.741999626159668 C164.0260009765625,-11.836999893188477 160.50399780273438,-10.781000137329102 155.99000549316406,-9.498000144958496 C151.45899963378906,-8.319999694824219 145.93600463867188,-6.910999774932861 139.53500366210938,-5.636000156402588 C133.14599609375,-4.303999900817871 125.9020004272461,-2.9700000286102295 117.96800231933594,-1.7339999675750732 C110.04000091552734,-0.45399999618530273 101.427001953125,0.7630000114440918 92.29900360107422,1.8769999742507935 C83.17500305175781,3.0160000324249268 73.53900146484375,4.1020002365112305 63.555999755859375,5.054999828338623 C53.573001861572266,5.999000072479248 43.257999420166016,6.973999977111816 32.7599983215332,7.742000102996826 C22.26300048828125,8.51200008392334 11.597999572753906,9.258000373840332 0.9269999861717224,9.916999816894531 C-9.744000434875488,10.517000198364258 -20.422000885009766,11.074999809265137 -30.929000854492188,11.562000274658203 C-41.4379997253418,12.083999633789062 -51.78900146484375,12.39799976348877 -61.801998138427734,12.746999740600586 C-71.81400299072266,13.107999801635742 -81.49700164794922,13.302000045776367 -90.67900085449219,13.496999740600586 C-99.86000061035156,13.708000183105469 -108.54199981689453,13.803000450134277 -116.55599975585938,13.875 C-132.58399963378906,14.031000137329102 -145.94400024414062,13.95300006866455 -155.29600524902344,13.845999717712402 C-159.9709930419922,13.809000015258789 -163.64500427246094,13.706999778747559 -166.1490020751953,13.663999557495117 C-168.6529998779297,13.607999801635742 -169.99000549316406,13.579000473022461 -169.99000549316406,13.579000473022461z"/></g><g opacity="1" transform="matrix(1,0,0,1,289.92401123046875,205.46400451660156)"><path fill="rgb(0,0,0)" fill-opacity="1" d=" M10.074999809265137,-45.59299850463867 C10.074999809265137,-45.59299850463867 10.0649995803833,-45.654998779296875 10.0649995803833,-45.654998779296875 C10.0649995803833,-45.654998779296875 10.052000045776367,-45.71500015258789 10.052000045776367,-45.71500015258789 C9.991000175476074,-46.01599884033203 8.515000343322754,-53.24100112915039 4.127999782562256,-60.069000244140625 C0.6610000133514404,-65.46099853515625 -29.079999923706055,-152.21800231933594 -27.298999786376953,-170.48300170898438 C-27.298999786376953,-170.48300170898438 -27.121999740600586,-172.2779998779297 -27.121999740600586,-172.2779998779297 C-31.96299934387207,-171.6269989013672 -35.10200119018555,-171.0469970703125 -35.1150016784668,-171.04400634765625 C-31.851999282836914,-170.8780059814453 -30.05500030517578,-170.7530059814453 -30.05500030517578,-170.7530059814453 C-31.902999877929688,-151.8249969482422 -2.3559999465942383,-65.03299713134766 1.7970000505447388,-58.57099914550781 C5.953000068664551,-52.106998443603516 7.336999893188477,-45.172000885009766 7.336999893188477,-45.172000885009766 C7.336999893188477,-45.172000885009766 23.031999588012695,55.946998596191406 26.26300048828125,72.10299682617188 C29.121999740600586,86.4000015258789 31.770999908447266,156.34800720214844 32.34400177001953,172.2570037841797 C33.12799835205078,172.26300048828125 34.055999755859375,172.2689971923828 35.1150016784668,172.2779998779297 C34.547000885009766,156.3070068359375 31.906999588012695,86.2020034790039 28.979000091552734,71.56500244140625 C25.79800033569336,55.652000427246094 10.230999946594238,-44.58300018310547 10.074999809265137,-45.59299850463867z"/></g><g opacity="1" transform="matrix(1,0,0,1,671.4609985351562,440.55999755859375)"><path fill="rgb(132,136,137)" fill-opacity="1" d=" M273.9339904785156,16.524999618530273 C273.9339904785156,16.524999618530273 -293.781005859375,16.524999618530273 -293.781005859375,16.524999618530273 C-293.781005859375,16.524999618530273 -293.781005859375,-16.525999069213867 -293.781005859375,-16.525999069213867 C-293.781005859375,-16.525999069213867 293.781005859375,-16.525999069213867 293.781005859375,-16.525999069213867 C293.781005859375,-16.525999069213867 273.9339904785156,16.524999618530273 273.9339904785156,16.524999618530273z"/></g><g opacity="1" transform="matrix(1,0,0,1,642.822021484375,518.0469970703125)"><path fill="rgb(132,136,137)" fill-opacity="1" d=" M292.3160095214844,17.628000259399414 C292.3160095214844,17.628000259399414 -292.3160095214844,17.628000259399414 -292.3160095214844,17.628000259399414 C-292.3160095214844,17.628000259399414 -292.3160095214844,-17.628000259399414 -292.3160095214844,-17.628000259399414 C-292.3160095214844,-17.628000259399414 292.3160095214844,-17.628000259399414 292.3160095214844,-17.628000259399414 C292.3160095214844,-17.628000259399414 292.3160095214844,17.628000259399414 292.3160095214844,17.628000259399414z"/></g><g opacity="1" transform="matrix(1,0,0,1,964.5159912109375,197.4530029296875)"><path fill="rgb(237,237,237)" fill-opacity="1" d=" M578.02197265625,197.2030029296875 C578.02197265625,197.2030029296875 -578.02197265625,197.2030029296875 -578.02197265625,197.2030029296875 C-578.02197265625,197.2030029296875 -578.02197265625,-197.2030029296875 -578.02197265625,-197.2030029296875 C-578.02197265625,-197.2030029296875 578.02197265625,-197.2030029296875 578.02197265625,-197.2030029296875 C578.02197265625,-197.2030029296875 578.02197265625,197.2030029296875 578.02197265625,197.2030029296875z"/></g><g opacity="1" transform="matrix(1,0,0,1,964.5159912109375,197.4530029296875)"><path fill="rgb(38,38,38)" fill-opacity="1" d=" M575.0850219726562,195 C575.0850219726562,195 -575.8179931640625,195 -575.8179931640625,195 C-575.8179931640625,195 -575.8179931640625,-194.26499938964844 -575.8179931640625,-194.26499938964844 C-575.8179931640625,-194.26499938964844 575.0850219726562,-194.26499938964844 575.0850219726562,-194.26499938964844 C575.0850219726562,-194.26499938964844 575.0850219726562,195 575.0850219726562,195z M578.02197265625,-197.2030029296875 C578.02197265625,-197.2030029296875 -578.02197265625,-197.2030029296875 -578.02197265625,-197.2030029296875 C-578.02197265625,-197.2030029296875 -578.02197265625,197.2030029296875 -578.02197265625,197.2030029296875 C-578.02197265625,197.2030029296875 578.02197265625,197.2030029296875 578.02197265625,197.2030029296875 C578.02197265625,197.2030029296875 578.02197265625,-197.2030029296875 578.02197265625,-197.2030029296875z"/></g></g><g transform="matrix(-0.9875898361206055,0.15705502033233643,-0.15705502033233643,-0.9875898361206055,504.2705993652344,824.800537109375)" opacity="1" style="display: block;"><g opacity="1" transform="matrix(1,0,0,1,79.36299896240234,79.36399841308594)"><path fill="rgb(37,42,43)" fill-opacity="1" d=" M79.11399841308594,0 C79.11399841308594,43.694000244140625 43.69300079345703,79.11399841308594 -0.0020000000949949026,79.11399841308594 C-43.694000244140625,79.11399841308594 -79.11399841308594,43.694000244140625 -79.11399841308594,0 C-79.11399841308594,-43.69599914550781 -43.694000244140625,-79.11399841308594 -0.0020000000949949026,-79.11399841308594 C43.69300079345703,-79.11399841308594 79.11399841308594,-43.69599914550781 79.11399841308594,0z"/></g><g opacity="1" transform="matrix(1,0,0,1,79.5510025024414,79.36399841308594)"><path fill="rgb(188,192,193)" fill-opacity="1" d=" M-59.762001037597656,0 C-59.762001037597656,33.00899887084961 -33.00299835205078,59.763999938964844 0.006000000052154064,59.763999938964844 C33.0099983215332,59.763999938964844 59.762001037597656,33.00899887084961 59.762001037597656,0 C59.762001037597656,-33.005001068115234 33.0099983215332,-59.763999938964844 0.006000000052154064,-59.763999938964844 C-33.00299835205078,-59.763999938964844 -59.762001037597656,-33.005001068115234 -59.762001037597656,0z"/></g><g opacity="1" transform="matrix(1,0,0,1,77.86100006103516,45.01599884033203)"><path fill="rgb(37,42,43)" fill-opacity="1" d=" M-19.048999786376953,-5.7210001945495605 C-19.048999786376953,-5.7210001945495605 -5.2179999351501465,9.99899959564209 -5.2179999351501465,9.99899959564209 C-5.2179999351501465,9.99899959564209 -2.8269999027252197,13.767999649047852 0.4399999976158142,13.767999649047852 C3.7090001106262207,13.767999649047852 6.098999977111816,11.130999565124512 6.098999977111816,11.130999565124512 C6.098999977111816,11.130999565124512 20.55699920654297,-5.7210001945495605 20.55699920654297,-5.7210001945495605 C20.55699920654297,-5.7210001945495605 22.56999969482422,-8.112000465393066 20.55699920654297,-9.744000434875488 C18.551000595092773,-11.378999710083008 11.493000030517578,-13.767999649047852 1.6959999799728394,-13.767999649047852 C-8.111000061035156,-13.767999649047852 -22.56999969482422,-11.130000114440918 -19.048999786376953,-5.7210001945495605z"/></g><g opacity="1" transform="matrix(1,0,0,1,77.86100006103516,113.71199798583984)"><path fill="rgb(37,42,43)" fill-opacity="1" d=" M-19.051000595092773,5.71999979019165 C-19.051000595092773,5.71999979019165 -5.21999979019165,-10.00100040435791 -5.21999979019165,-10.00100040435791 C-5.21999979019165,-10.00100040435791 -2.8269999027252197,-13.767000198364258 0.4399999976158142,-13.767000198364258 C3.7049999237060547,-13.767000198364258 6.098999977111816,-11.130000114440918 6.098999977111816,-11.130000114440918 C6.098999977111816,-11.130000114440918 20.55699920654297,5.71999979019165 20.55699920654297,5.71999979019165 C20.55699920654297,5.71999979019165 22.56999969482422,8.109000205993652 20.55699920654297,9.741000175476074 C18.547000885009766,11.378000259399414 11.48900032043457,13.767000198364258 1.694000005722046,13.767000198364258 C-8.112000465393066,13.767000198364258 -22.56999969482422,11.126999855041504 -19.051000595092773,5.71999979019165z"/></g><g opacity="1" transform="matrix(1,0,0,1,114.38800048828125,78.43000030517578)"><path fill="rgb(37,42,43)" fill-opacity="1" d=" M5.7220001220703125,-19.04800033569336 C5.7220001220703125,-19.04800033569336 -9.996999740600586,-5.215000152587891 -9.996999740600586,-5.215000152587891 C-9.996999740600586,-5.215000152587891 -13.769000053405762,-2.8289999961853027 -13.769000053405762,0.4390000104904175 C-13.769000053405762,3.7139999866485596 -11.128999710083008,6.099999904632568 -11.128999710083008,6.099999904632568 C-11.128999710083008,6.099999904632568 5.7220001220703125,20.56100082397461 5.7220001220703125,20.56100082397461 C5.7220001220703125,20.56100082397461 8.112000465393066,22.570999145507812 9.741000175476074,20.56100082397461 C11.380000114440918,18.552000045776367 13.769000053405762,11.48900032043457 13.769000053405762,1.6929999589920044 C13.769000053405762,-8.107999801635742 11.128000259399414,-22.57200050354004 5.7220001220703125,-19.04800033569336z"/></g><g opacity="1" transform="matrix(1,0,0,1,45.69599914550781,78.43000030517578)"><path fill="rgb(37,42,43)" fill-opacity="1" d=" M-5.71999979019165,-19.04800033569336 C-5.71999979019165,-19.04800033569336 9.998000144958496,-5.215000152587891 9.998000144958496,-5.215000152587891 C9.998000144958496,-5.215000152587891 13.769000053405762,-2.8289999961853027 13.769000053405762,0.4390000104904175 C13.769000053405762,3.7090001106262207 11.128000259399414,6.098999977111816 11.128000259399414,6.098999977111816 C11.128000259399414,6.098999977111816 -5.71999979019165,20.56100082397461 -5.71999979019165,20.56100082397461 C-5.71999979019165,20.56100082397461 -8.109999656677246,22.570999145507812 -9.74899959564209,20.56100082397461 C-11.380999565124512,18.54599952697754 -13.769000053405762,11.48900032043457 -13.769000053405762,1.6929999589920044 C-13.769000053405762,-8.107999801635742 -11.12600040435791,-22.57200050354004 -5.71999979019165,-19.04800033569336z"/></g></g><g transform="matrix(-0.9875898361206055,0.15705502033233643,-0.15705502033233643,-0.9875898361206055,1307.5086669921875,824.800537109375)" opacity="1" style="display: block;"><g opacity="1" transform="matrix(1,0,0,1,79.36399841308594,79.36399841308594)"><path fill="rgb(37,42,43)" fill-opacity="1" d=" M79.11399841308594,0 C79.11399841308594,43.694000244140625 43.694000244140625,79.11399841308594 -0.0010000000474974513,79.11399841308594 C-43.69300079345703,79.11399841308594 -79.11399841308594,43.694000244140625 -79.11399841308594,0 C-79.11399841308594,-43.69599914550781 -43.69300079345703,-79.11399841308594 -0.0010000000474974513,-79.11399841308594 C43.694000244140625,-79.11399841308594 79.11399841308594,-43.69599914550781 79.11399841308594,0z"/></g><g opacity="1" transform="matrix(1,0,0,1,79.552001953125,79.36399841308594)"><path fill="rgb(188,192,193)" fill-opacity="1" d=" M-59.762001037597656,0 C-59.762001037597656,33.00899887084961 -33.00299835205078,59.763999938964844 0.004999999888241291,59.763999938964844 C33.00899887084961,59.763999938964844 59.762001037597656,33.00899887084961 59.762001037597656,0 C59.762001037597656,-33.005001068115234 33.00899887084961,-59.763999938964844 0.004999999888241291,-59.763999938964844 C-33.00299835205078,-59.763999938964844 -59.762001037597656,-33.005001068115234 -59.762001037597656,0z"/></g><g opacity="1" transform="matrix(1,0,0,1,77.86199951171875,45.01599884033203)"><path fill="rgb(37,42,43)" fill-opacity="1" d=" M-19.04800033569336,-5.7210001945495605 C-19.04800033569336,-5.7210001945495605 -5.2179999351501465,9.99899959564209 -5.2179999351501465,9.99899959564209 C-5.2179999351501465,9.99899959564209 -2.8269999027252197,13.767999649047852 0.4399999976158142,13.767999649047852 C3.7109999656677246,13.767999649047852 6.099999904632568,11.130999565124512 6.099999904632568,11.130999565124512 C6.099999904632568,11.130999565124512 20.558000564575195,-5.7210001945495605 20.558000564575195,-5.7210001945495605 C20.558000564575195,-5.7210001945495605 22.570999145507812,-8.112000465393066 20.558000564575195,-9.744000434875488 C18.551000595092773,-11.378999710083008 11.493000030517578,-13.767999649047852 1.6950000524520874,-13.767999649047852 C-8.109999656677246,-13.767999649047852 -22.56999969482422,-11.130000114440918 -19.04800033569336,-5.7210001945495605z"/></g><g opacity="1" transform="matrix(1,0,0,1,77.86199951171875,113.71199798583984)"><path fill="rgb(37,42,43)" fill-opacity="1" d=" M-19.051000595092773,5.71999979019165 C-19.051000595092773,5.71999979019165 -5.2210001945495605,-10.00100040435791 -5.2210001945495605,-10.00100040435791 C-5.2210001945495605,-10.00100040435791 -2.8269999027252197,-13.767000198364258 0.4399999976158142,-13.767000198364258 C3.7049999237060547,-13.767000198364258 6.099999904632568,-11.130000114440918 6.099999904632568,-11.130000114440918 C6.099999904632568,-11.130000114440918 20.558000564575195,5.71999979019165 20.558000564575195,5.71999979019165 C20.558000564575195,5.71999979019165 22.570999145507812,8.109000205993652 20.558000564575195,9.741000175476074 C18.547000885009766,11.378000259399414 11.489999771118164,13.767000198364258 1.6950000524520874,13.767000198364258 C-8.111000061035156,13.767000198364258 -22.570999145507812,11.126999855041504 -19.051000595092773,5.71999979019165z"/></g><g opacity="1" transform="matrix(1,0,0,1,114.38999938964844,78.43000030517578)"><path fill="rgb(37,42,43)" fill-opacity="1" d=" M5.7220001220703125,-19.04800033569336 C5.7220001220703125,-19.04800033569336 -9.998000144958496,-5.215000152587891 -9.998000144958496,-5.215000152587891 C-9.998000144958496,-5.215000152587891 -13.770000457763672,-2.8289999961853027 -13.770000457763672,0.4390000104904175 C-13.770000457763672,3.7139999866485596 -11.130000114440918,6.099999904632568 -11.130000114440918,6.099999904632568 C-11.130000114440918,6.099999904632568 5.7220001220703125,20.56100082397461 5.7220001220703125,20.56100082397461 C5.7220001220703125,20.56100082397461 8.112000465393066,22.570999145507812 9.741000175476074,20.56100082397461 C11.378999710083008,18.552000045776367 13.770000457763672,11.48900032043457 13.770000457763672,1.6929999589920044 C13.770000457763672,-8.107999801635742 11.126999855041504,-22.57200050354004 5.7220001220703125,-19.04800033569336z"/></g><g opacity="1" transform="matrix(1,0,0,1,45.69599914550781,78.43000030517578)"><path fill="rgb(37,42,43)" fill-opacity="1" d=" M-5.718999862670898,-19.04800033569336 C-5.718999862670898,-19.04800033569336 9.998000144958496,-5.215000152587891 9.998000144958496,-5.215000152587891 C9.998000144958496,-5.215000152587891 13.769000053405762,-2.8289999961853027 13.769000053405762,0.4390000104904175 C13.769000053405762,3.7090001106262207 11.128000259399414,6.098999977111816 11.128000259399414,6.098999977111816 C11.128000259399414,6.098999977111816 -5.718999862670898,20.56100082397461 -5.718999862670898,20.56100082397461 C-5.718999862670898,20.56100082397461 -8.109000205993652,22.570999145507812 -9.746999740600586,20.56100082397461 C-11.380000114440918,18.54599952697754 -13.769000053405762,11.48900032043457 -13.769000053405762,1.6929999589920044 C-13.769000053405762,-8.107999801635742 -11.123000144958496,-22.57200050354004 -5.718999862670898,-19.04800033569336z"/></g></g><g transform="matrix(-0.9875898361206055,0.15705502033233643,-0.15705502033233643,-0.9875898361206055,1483.390625,824.800537109375)" opacity="1" style="display: block;"><g opacity="1" transform="matrix(1,0,0,1,79.36399841308594,79.36399841308594)"><path fill="rgb(37,42,43)" fill-opacity="1" d=" M79.11399841308594,0 C79.11399841308594,43.694000244140625 43.69300079345703,79.11399841308594 -0.0010000000474974513,79.11399841308594 C-43.694000244140625,79.11399841308594 -79.11399841308594,43.694000244140625 -79.11399841308594,0 C-79.11399841308594,-43.69599914550781 -43.694000244140625,-79.11399841308594 -0.0010000000474974513,-79.11399841308594 C43.69300079345703,-79.11399841308594 79.11399841308594,-43.69599914550781 79.11399841308594,0z"/></g><g opacity="1" transform="matrix(1,0,0,1,79.552001953125,79.36399841308594)"><path fill="rgb(188,192,193)" fill-opacity="1" d=" M-59.762001037597656,0 C-59.762001037597656,33.00899887084961 -33.00400161743164,59.763999938964844 0.006000000052154064,59.763999938964844 C33.00899887084961,59.763999938964844 59.762001037597656,33.00899887084961 59.762001037597656,0 C59.762001037597656,-33.005001068115234 33.00899887084961,-59.763999938964844 0.006000000052154064,-59.763999938964844 C-33.00400161743164,-59.763999938964844 -59.762001037597656,-33.005001068115234 -59.762001037597656,0z"/></g><g opacity="1" transform="matrix(1,0,0,1,77.86299896240234,45.01599884033203)"><path fill="rgb(37,42,43)" fill-opacity="1" d=" M-19.048999786376953,-5.7210001945495605 C-19.048999786376953,-5.7210001945495605 -5.218999862670898,9.99899959564209 -5.218999862670898,9.99899959564209 C-5.218999862670898,9.99899959564209 -2.8269999027252197,13.767999649047852 0.4390000104904175,13.767999649047852 C3.7100000381469727,13.767999649047852 6.098999977111816,11.130999565124512 6.098999977111816,11.130999565124512 C6.098999977111816,11.130999565124512 20.55699920654297,-5.7210001945495605 20.55699920654297,-5.7210001945495605 C20.55699920654297,-5.7210001945495605 22.56999969482422,-8.112000465393066 20.55699920654297,-9.744000434875488 C18.549999237060547,-11.378999710083008 11.491000175476074,-13.767999649047852 1.6950000524520874,-13.767999649047852 C-8.111000061035156,-13.767999649047852 -22.56999969482422,-11.130000114440918 -19.048999786376953,-5.7210001945495605z"/></g><g opacity="1" transform="matrix(1,0,0,1,77.86199951171875,113.71199798583984)"><path fill="rgb(37,42,43)" fill-opacity="1" d=" M-19.051000595092773,5.71999979019165 C-19.051000595092773,5.71999979019165 -5.2210001945495605,-10.00100040435791 -5.2210001945495605,-10.00100040435791 C-5.2210001945495605,-10.00100040435791 -2.8259999752044678,-13.767000198364258 0.4399999976158142,-13.767000198364258 C3.7049999237060547,-13.767000198364258 6.098999977111816,-11.130000114440918 6.098999977111816,-11.130000114440918 C6.098999977111816,-11.130000114440918 20.55699920654297,5.71999979019165 20.55699920654297,5.71999979019165 C20.55699920654297,5.71999979019165 22.56999969482422,8.109000205993652 20.55699920654297,9.741000175476074 C18.54599952697754,11.378000259399414 11.489999771118164,13.767000198364258 1.694000005722046,13.767000198364258 C-8.111000061035156,13.767000198364258 -22.56999969482422,11.126999855041504 -19.051000595092773,5.71999979019165z"/></g><g opacity="1" transform="matrix(1,0,0,1,114.38899993896484,78.43000030517578)"><path fill="rgb(37,42,43)" fill-opacity="1" d=" M5.723999977111816,-19.04800033569336 C5.723999977111816,-19.04800033569336 -9.996999740600586,-5.215000152587891 -9.996999740600586,-5.215000152587891 C-9.996999740600586,-5.215000152587891 -13.767999649047852,-2.8289999961853027 -13.767999649047852,0.4390000104904175 C-13.767999649047852,3.7139999866485596 -11.128999710083008,6.099999904632568 -11.128999710083008,6.099999904632568 C-11.128999710083008,6.099999904632568 5.723999977111816,20.56100082397461 5.723999977111816,20.56100082397461 C5.723999977111816,20.56100082397461 8.112000465393066,22.570999145507812 9.741999626159668,20.56100082397461 C11.378999710083008,18.552000045776367 13.767999649047852,11.48900032043457 13.767999649047852,1.6929999589920044 C13.767999649047852,-8.107999801635742 11.128000259399414,-22.57200050354004 5.723999977111816,-19.04800033569336z"/></g><g opacity="1" transform="matrix(1,0,0,1,45.69599914550781,78.43000030517578)"><path fill="rgb(37,42,43)" fill-opacity="1" d=" M-5.718999862670898,-19.04800033569336 C-5.718999862670898,-19.04800033569336 9.99899959564209,-5.215000152587891 9.99899959564209,-5.215000152587891 C9.99899959564209,-5.215000152587891 13.769000053405762,-2.8289999961853027 13.769000053405762,0.4390000104904175 C13.769000053405762,3.7090001106262207 11.128000259399414,6.098999977111816 11.128000259399414,6.098999977111816 C11.128000259399414,6.098999977111816 -5.718999862670898,20.56100082397461 -5.718999862670898,20.56100082397461 C-5.718999862670898,20.56100082397461 -8.109000205993652,22.570999145507812 -9.748000144958496,20.56100082397461 C-11.380000114440918,18.54599952697754 -13.769000053405762,11.48900032043457 -13.769000053405762,1.6929999589920044 C-13.769000053405762,-8.107999801635742 -11.125,-22.57200050354004 -5.718999862670898,-19.04800033569336z"/></g></g><g clip-path="url(#__lottie_element_6142)" transform="matrix(1.2599999904632568,0,0,1.2599999904632568,-249.5999755859375,-359.4000244140625)" opacity="1" style="display: block;"><g transform="matrix(1,0,0,1,1016,670)" opacity="1" style="display: block;"><g opacity="1" transform="matrix(1,0,0,1,0,-128)"><path stroke-linecap="round" stroke-linejoin="miter" fill-opacity="0" stroke-miterlimit="4" stroke-dasharray=" 156" stroke-dashoffset="-544.3936767578125" stroke="rgb(0,0,0)" stroke-opacity="1" stroke-width="20" d=" M-760,408 C-760,408 648,408 648,408"/></g></g></g></g></svg>