<?xml version="1.0" encoding="UTF-8"?>
<!DOCTYPE svg PUBLIC "-//W3C//DTD SVG 1.1//EN" "http://www.w3.org/Graphics/SVG/1.1/DTD/svg11.dtd">
<!-- Creator: CorelDRAW -->
<svg xmlns="http://www.w3.org/2000/svg" xml:space="preserve" width="81.9145in" height="32.3294in" version="1.1" style="shape-rendering:geometricPrecision; text-rendering:geometricPrecision; image-rendering:optimizeQuality; fill-rule:evenodd; clip-rule:evenodd"
viewBox="0 0 72969.36 28798.98"
 xmlns:xlink="http://www.w3.org/1999/xlink"
 xmlns:xodm="http://www.corel.com/coreldraw/odm/2003">
 <defs>
  <style type="text/css">
   <![CDATA[
    .str0 {stroke:#373435;stroke-width:6.19;stroke-miterlimit:2.61313}
    .str1 {stroke:black;stroke-width:233.83;stroke-linecap:round;stroke-miterlimit:2.61313;stroke-dasharray:1823.908530}
    .fil21 {fill:none}
    .fil20 {fill:none;fill-rule:nonzero}
    .fil1 {fill:#373435}
    .fil0 {fill:#3B3B3D}
    .fil14 {fill:black;fill-rule:nonzero}
    .fil7 {fill:#00526D;fill-rule:nonzero}
    .fil9 {fill:#05C0FF;fill-rule:nonzero}
    .fil12 {fill:#09B5F5;fill-rule:nonzero}
    .fil2 {fill:#0A0A0A;fill-rule:nonzero}
    .fil4 {fill:#232324;fill-rule:nonzero}
    .fil17 {fill:#252A2B;fill-rule:nonzero}
    .fil10 {fill:#262626;fill-rule:nonzero}
    .fil11 {fill:#383838;fill-rule:nonzero}
    .fil3 {fill:#565656;fill-rule:nonzero}
    .fil5 {fill:#797B7B;fill-rule:nonzero}
    .fil6 {fill:#79959E;fill-rule:nonzero}
    .fil15 {fill:#848889;fill-rule:nonzero}
    .fil18 {fill:#BCC0C1;fill-rule:nonzero}
    .fil8 {fill:#C3CCCF;fill-rule:nonzero}
    .fil13 {fill:#D4DADD;fill-rule:nonzero}
    .fil16 {fill:#EDEDED;fill-rule:nonzero}
    .fil19 {fill:black;fill-rule:nonzero;fill-opacity:0.000000}
   ]]>
  </style>
     <clipPath id="id0">
      <path d="M56829.78 22233.98l16139.58 -130.51 0 -4557.05 -36153.4 115.05 1074 4334.82 8260.82 0 485.82 104.1 0 -167.29 588.4 0 126.38 189.57 0 126.37 43.49 0 0 -568.7 588.4 0 442.33 63.19 126.37 63.19 3285.85 0 126.38 63.19 63.19 0 63.19 126.38 379.14 0 0 63.19 379.14 0 3980.93 63.19 0 111.31z"/>
     </clipPath>
     <clipPath id="id1">
      <path d="M-0 28798.98l51198.18 0 0 -4002.66 -429.14 0 0 -841.16 63.19 -315.95 64.93 -259.72 -49248.06 0 0 -1263.8 40399.79 0 0 -119.41 8550.27 0 485.82 104.1 0 -167.29 113.19 0 0 -5120.92 -14352.56 0 0 -82.37 -21610.79 0 0 -10497.57 -267.73 0 0 -588.4 21878.52 0 0 -5643.83 -36845.63 0 0 28798.98z"/>
     </clipPath>
 </defs>
 <g id="Layer_x0020_1">
  <metadata id="CorelCorpID_0Corel-Layer"/>
  <g id="_2017227675776">
   <g>
    <circle class="fil0" cx="54193.25" cy="20311.56" r="2102.86"/>
    <circle class="fil0" cx="58908.51" cy="20399.36" r="2025.91"/>
    <g>
     <rect class="fil1 str0" transform="matrix(1.32106 -0 2.51238 0.660529 32911.4 16812.2)" width="25135.93" height="956.66"/>
     <rect class="fil1 str0" x="35314.93" y="17444.08" width="33206.01" height="631.9"/>
    </g>
    <g>
    </g>
    <g style="clip-path:url(#id0)">
     <g>
      <path class="fil2" d="M29936.83 20290.81c0,0 886.31,0 886.31,0 0,0 3914.5,0 3914.5,0 0,0 978.63,137.46 978.63,137.46 0,0 890.61,-2770.97 -166.2,-3466.23 -1056.79,-695.23 -6591.88,-2155.01 -5613.25,3328.77z"/>
      <path class="fil3" d="M36196.37 17887.97c0,0 424.62,1477.6 369.26,2049.97 -55.38,572.43 -572.43,480.1 -572.43,480.1 0,0 -646.24,-2097.69 -646.24,-2097.69 0,0 849.42,-432.38 849.42,-432.38z"/>
      <path class="fil2" d="M51247.38 19762.05c0,0 -626.74,0 -626.74,0 0,0 0,-1449.33 0,-1449.33 0,0 626.74,0 626.74,0 0,0 0,1449.33 0,1449.33z"/>
      <path class="fil2" d="M51462.78 19762.03c0,0 -1449.28,0 -1449.28,0 0,0 0,-705.07 0,-705.07 0,0 1449.28,0 1449.28,0 0,0 0,705.07 0,705.07z"/>
      <path class="fil2" d="M57382.12 17872.9c0,0 -939.99,233 -1032.68,1539.25 -92.66,1306.22 90.45,1051.4 90.45,1051.4 0,0 563.5,127.36 563.5,127.36 0,0 3850.69,-42.37 3850.69,-42.37 0,0 201.99,48.04 201.99,48.04 0,0 79.76,85.9 79.76,85.9 0,0 190.87,0 190.87,0 0,0 276.89,-2361.47 -1315.9,-2809.58 -1592.75,-448.12 -2628.69,0 -2628.69,0z"/>
      <path class="fil2" d="M51886.96 20531.49c0,0 -505.66,-2688.26 1668.55,-2797.82 2174.25,-109.57 2039.42,185.38 2039.42,185.38 0,0 1247.21,918.61 969.15,2781.02 0,0 -254.56,-118 -254.56,-118 0,0 -4422.56,-50.59 -4422.56,-50.59z"/>
      <path class="fil4" d="M36264.1 16565.05c0,0 28506,172.42 28506,172.42 0,0 1557.71,640.09 2458.61,689.31 0,0 0,738.59 0,738.59 0,0 -30672.41,147.7 -30672.41,147.7 0,0 -292.2,-1748.02 -292.2,-1748.02z"/>
      <path class="fil5" d="M50287.73 19605.34c0,0 -13161.13,0 -13161.13,0 0,0 0,-1547.2 0,-1547.2 0,0 13161.13,0 13161.13,0 0,0 0,1547.2 0,1547.2z"/>
      <path class="fil3" d="M36655.71 16093.65c0,0 129.44,2335.55 -0.74,2352.85 -130.18,17.38 -1007.22,-4.05 -1007.22,-4.05 0,0 -121.7,102.14 -121.7,102.14 0,0 -96.81,42.39 -96.81,42.39 0,0 -1170.62,-1293.8 -1170.62,-1293.8 0,0 -3090.02,38.77 -3090.02,38.77 0,0 -1041.59,1315.56 -1041.59,1315.56 0,0 -269.08,1493.57 -269.08,1493.57 0,0 -2026.06,0 -2026.06,0 0,0 -423.24,-478.22 -423.24,-478.22 0,0 -149.17,-755.74 -149.17,-755.74 0,0 0,-1591.14 0,-1591.14 0,0 2997.2,-1681.14 2997.2,-1681.14 0,0 6399.06,458.81 6399.06,458.81z"/>
      <path class="fil6" d="M27237.43 11183.77c-55.15,587.55 -189.25,2145.87 -108.53,2943.15 0,0 518.58,-227.7 518.58,-227.7 0,0 0,-2715.45 0,-2715.45 0,0 -410.04,0 -410.04,0z"/>
      <path class="fil7" d="M27865.52 10948.74c0,0 -606.08,0 -606.08,0 0,0 -8.73,117.55 -22,235.04 0,0 410.04,0 410.04,0 0,0 0,2715.48 0,2715.48 0,0 157.7,-77.31 157.7,-77.31 0,0 60.35,-2873.21 60.35,-2873.21z"/>
      <path class="fil3" d="M27252.66 10594.86c0,0 -270.18,480.08 -270.18,480.08 0,0 635.63,0 635.63,0 0,0 102.95,-480.08 102.95,-480.08 0,0 -468.4,0 -468.4,0z"/>
      <path class="fil8" d="M36091.68 10447c0,0 -2203.43,-3422.65 -2203.43,-3422.65 0,0 -331.91,25.31 -331.91,25.31 -170.1,0 -489.98,-25.31 -896.77,-25.31 -1419.08,-0.05 -3895.09,156.5 -4753.83,1187.1 -1036.16,1243.45 -467.83,2045.02 -467.83,2045.02 0,0 -185.27,320.17 -185.27,320.17 0,0 468.38,0 468.38,0 0,0 -102.9,509.21 -102.9,509.21 0,0 127.27,0 127.27,0 0,0 0,2574.15 0,2574.15 0,0 -741.52,172.87 -778.45,456.02 -36.9,283.13 12.38,1871.67 12.38,1871.67 0,0 -3.87,0.07 -12.64,0.07 -42.27,0 -161.25,27.65 -120.43,323.41 49.28,357.02 -77.89,794.8 -7.97,880.93 69.94,86.18 144.18,239.3 144.18,239.3 0,0 2769.69,0 2769.69,0 0,0 656.96,-857.76 1109.77,-953.94 452.79,-96.19 1915.46,-115.23 1915.46,-115.23 0,0 2577.83,-165.27 2577.83,-165.27 0,0 270.7,-19.76 268.71,-74.9 -47.78,-0.37 12.27,-160.15 12.27,-160.15 0,0 455.5,-5514.9 455.5,-5514.9z"/>
      <path class="fil8" d="M36670.25 6409.54c-295.43,-184.63 -1046.31,221.6 -1403.31,356.97 -356.98,135.36 -590.86,184.67 -972.44,197.01 -197.04,6.37 -386.92,27.09 -524.98,45.62 0,0 -4.72,47.86 -4.72,47.86 -47.49,487.03 745.58,2800.46 838.03,2944.27 116.98,182.05 156.37,374.71 157.99,382.77 0,0 0.32,1.54 0.32,1.54 0,0 0.26,1.65 0.26,1.65 4.16,26.96 419.27,2699.8 504.09,3124.13 78.08,390.29 148.48,2259.71 163.62,2685.59 371.93,2.75 1322.19,8.7 1499.62,-1.17 221.57,-12.34 172.35,-196.98 172.35,-196.98 0,0 -73.87,-6844.19 12.29,-7632 86.16,-787.84 -147.67,-1772.63 -443.13,-1957.26z"/>
      <path class="fil7" d="M26945.55 18058.12c0,0 936.96,0 936.96,0 0,0 0,2359.91 0,2359.91 0,0 -536.01,-17.97 -744.32,-330.44 -208.29,-312.5 -191.73,-795.66 -191.73,-795.66 0,0 -0.9,-1233.82 -0.9,-1233.82z"/>
      <path class="fil9" d="M27725.84 18684.84c0,0 -705.04,0 -705.04,0 0,0 0,-215.43 0,-215.43 0,0 705.04,0 705.04,0 0,0 0,215.43 0,215.43z"/>
      <path class="fil10" d="M29789.1 20408.33c0,0 295.43,0 295.43,0 0,0 155.28,-1717.78 155.28,-1717.78 0,0 920.05,-1180.85 920.05,-1180.85 0,0 3060.77,0 3060.77,0 0,0 1374.64,665.93 1374.64,2898.63 0,0 397.93,0 397.93,0 0,0 -172.26,-2820.27 -1673.89,-3329.49 0,0 -3126.9,0 -3126.9,0 0,0 -1775.88,1077.19 -1403.31,3329.49z"/>
      <path class="fil7" d="M29087.47 10576.65c0,0 -875.86,1.13 -1049.56,241.62 -173.75,240.5 -223.05,1972.81 -116.13,2707.7 0,0 56.67,126.63 56.67,126.63 0,0 3507.69,-509.61 3507.69,-509.61 0,0 0,-2566.34 0,-2566.34 0,0 -2398.66,0 -2398.66,0z"/>
      <path class="fil6" d="M31251.1 10742.58c0,0 0,2252.7 0,2252.7 0,0 -3220.61,459.13 -3220.61,459.13 0,0 -222.68,-2177.85 169.2,-2511.89 391.94,-334.04 3051.41,-199.95 3051.41,-199.95z"/>
      <path class="fil7" d="M28014.26 13960.5c0,0 83.68,-145.06 53.76,-325.56 -29.94,-180.52 -204.63,81.33 -202.53,209.7 2.14,128.42 -5.15,115.86 148.77,115.86z"/>
      <path class="fil4" d="M28235.02 13844.61c0,0 0,-1661.97 0,-1661.97 0,0 -255.46,0 -255.46,0 0,0 -213.67,362.6 -188.61,775.91 25.07,413.3 -45.57,886.05 444.06,886.05z"/>
      <path class="fil6" d="M31749.73 10529.24c0,0 260.2,2229.15 236.52,2542.2 0,0 1616.87,-162.85 1967.5,-563.55 350.69,-400.73 137.76,-1853.42 -75.11,-1978.65 -212.88,-125.22 -2128.91,0 -2128.91,0z"/>
      <path class="fil7" d="M33232.08 10547.43c493.47,0 590.99,34.82 609.1,45.46 32.39,19.09 118.76,178.98 178.98,551.52 77.19,477.91 71.91,1093.24 -121.95,1314.81 -256.4,292.97 -1343.74,472.89 -1837.06,529.79 -8.98,-457.74 -186.15,-2018.17 -229.11,-2390.9 224.05,-13.44 888.85,-50.68 1400.04,-50.68zm0 -73.87c-630.78,0 -1482.35,55.67 -1482.35,55.67 0,0 260.17,2229.15 236.5,2542.2 0,0 1616.9,-162.87 1967.52,-563.57 350.66,-400.74 137.76,-1853.4 -75.11,-1978.63 -70.95,-41.73 -331.22,-55.67 -646.56,-55.67z"/>
      <path class="fil11" d="M30668.38 15608.95c0,0 285.22,-508.2 597.87,-508.2 0,0 298.21,0 298.21,0 0,0 0,516.5 0,516.5 0,0 -896.08,-8.29 -896.08,-8.29z"/>
      <path class="fil12" d="M27550.65 15633.72c0,0 96.84,249.67 -569.05,353.98 0,0 0,-111.91 0,-111.91 0,0 404.49,72.15 569.05,-242.07z"/>
      <path class="fil12" d="M27103.62 14511.21c0,0 21.11,-23.6 68.37,-60.03 12.05,-8.72 25.49,-18.49 40.35,-29.23 14.48,-11.33 31.43,-21.89 50.29,-32.47 37.46,-21.39 79.23,-49.23 130.85,-70.22 50.78,-22.77 106.22,-50.78 170.53,-70.37 63.54,-21.49 131.59,-48.37 207.62,-64.29 149.76,-42.53 323.54,-68.64 513.13,-92.27 188.92,-18.24 393.55,-37.97 610,-58.85 216.57,-19.84 444.89,-40.79 681.11,-62.53 236.29,-20.66 480.49,-42.03 728.65,-63.67 248.2,-20.72 500.35,-41.76 752.5,-62.75 252.26,-19.78 504.56,-39.54 752.9,-59.04 248.39,-18.48 492.83,-36.67 729.41,-54.26 473.21,-34.35 915.12,-64.08 1294.03,-87.51 378.84,-24.43 694.94,-39.84 916.03,-52.96 110.63,-5.57 197.56,-9.98 256.79,-12.96 59.31,-2.82 90.96,-4.32 90.96,-4.32 0,0 -31.49,3.58 -90.39,10.32 -58.96,6.54 -145.44,16.19 -255.49,28.45 -220.26,22.57 -534.65,58.08 -912.4,94.86 -377.75,37.7 -818.61,79.28 -1291.12,121.38 -236.34,20.63 -480.55,41.97 -728.7,63.65 -248.21,20.64 -500.33,41.68 -752.51,62.66 -252.25,19.76 -504.48,39.49 -752.84,58.93 -248.39,18.48 -492.89,36.59 -729.41,54.16 -236.72,16.56 -465.51,32.56 -682.41,47.7 -217.03,14.13 -422.22,27.52 -611.63,39.87 -187.52,17.63 -359.67,34.58 -509.03,68.98 -75.94,12 -143.67,35.17 -207.51,53.26 -64.55,16.31 -120.16,41.15 -171.43,61.15 -101.96,41.33 -177.4,84.67 -226.76,117.2 -49.06,32.84 -71.89,55.17 -71.89,55.17z"/>
      <path class="fil7" d="M27684.19 17426.81c-0.05,-54.72 -4.99,-5478.66 0,-6145.36 5.09,-687.97 257.3,-834.34 267.99,-840.26 0,0 7.86,-4.28 7.86,-4.28 0,0 8.96,-0.29 8.96,-0.29 0,0 3644.38,-99.33 3644.38,-99.33 0,0 2.42,35.37 2.42,35.37 0,0 407.32,6007.01 407.32,6007.01 0,0 -73.75,5.02 -73.75,5.02 0,0 -404.84,-5971.65 -404.84,-5971.65 0,0 -3562.83,97.2 -3562.83,97.2 -35.95,27.19 -219.36,194.36 -223.68,771.78 -4.96,666.37 -0.02,6089.99 0,6144.72 0,0 -73.83,0.08 -73.83,0.08z"/>
      <path class="fil13" d="M27647.2 8561.41c0,0 142.27,-8.02 391.21,-22.1 248.91,-13.12 604.43,-31.95 1031.06,-54.45 426.51,-22.02 924.07,-47.7 1457.2,-75.26 266.47,-14.37 541.76,-29.16 821.52,-44.23 279.77,-14.64 563.84,-31.25 847.83,-48.96 284.07,-16.21 568.04,-34.05 847.41,-52.9 139.68,-9.71 278.23,-19.33 415.16,-28.86 136.83,-10.19 271.98,-20.19 404.92,-30.05 265.69,-21.78 522.67,-42 765.92,-64.85 121.58,-11.81 239.97,-22.45 354.17,-35.01 114.29,-11.92 224.93,-22.46 330.63,-35.71 105.83,-12.54 207.38,-24.19 303.51,-37.68 96.24,-12.85 187.86,-23.79 273.24,-37.99 171.29,-25.36 319.77,-52.45 441.96,-75.89 60.74,-13.25 115.04,-25.07 162.18,-35.33 47.62,-9.2 86.55,-22.31 119.01,-30.23 64.45,-17.44 98.88,-26.72 98.88,-26.72 0,0 -33.57,11.94 -96.53,34.37 -62.51,24.14 -156.43,52.3 -276.79,86.5 -120.82,31.42 -268.1,68.99 -438.78,102.99 -170.37,35.52 -363.54,71.08 -575.11,104.05 -211.4,34.13 -441.08,66.58 -684.48,96.29 -243.29,30.36 -500.25,59.33 -766.45,84.74 -266.2,25.17 -541.26,51.17 -821.19,71.65 -279.91,20.54 -564.3,40.44 -848.85,58 -284.54,16.01 -569.29,30.88 -849.45,43.87 -280.24,13.92 -556.26,22.28 -823.25,31.6 -266.98,9.62 -525.19,14.79 -770.03,19.99 -244.81,5.64 -476.33,8.16 -690.03,10.08 -427.4,4.16 -783.65,2.09 -1033.03,-0.76 -124.66,-0.99 -222.63,-3.71 -289.4,-4.86 -66.77,-1.49 -102.43,-2.27 -102.43,-2.27z"/>
      <path class="fil14" d="M34761.4 10387.27c0,0 -0.26,-1.65 -0.26,-1.65 0,0 -0.34,-1.6 -0.34,-1.6 -1.63,-8.02 -40.99,-200.69 -157.97,-382.76 -92.45,-143.79 -885.52,-2457.22 -838.03,-2944.27 0,0 4.72,-47.87 4.72,-47.87 -129.08,17.36 -212.79,32.82 -213.14,32.9 87.02,4.43 134.93,7.76 134.93,7.76 -49.27,504.74 738.62,2819.11 849.36,2991.42 110.82,172.37 147.73,357.3 147.73,357.3 0,0 418.52,2696.41 504.68,3127.22 76.24,381.23 146.87,2246.45 162.16,2670.68 20.9,0.15 45.64,0.31 73.88,0.55 -15.15,-425.88 -85.54,-2295.28 -163.62,-2685.59 -84.82,-424.33 -499.93,-3097.17 -504.09,-3124.1z"/>
      <path class="fil15" d="M51971.36 18312.69c0,0 -15138.54,0 -15138.54,0 0,0 0,-881.32 0,-881.32 0,0 15667.77,0 15667.77,0 0,0 -529.24,881.32 -529.24,881.32z"/>
      <path class="fil15" d="M51697.84 20408.35c0,0 -15589.63,0 -15589.63,0 0,0 0,-940.12 0,-940.12 0,0 15589.63,0 15589.63,0 0,0 0,940.12 0,940.12z"/>
      <path class="fil16" d="M67894.6 16647.98c0,0 -30826.74,0 -30826.74,0 0,0 0,-10517.13 0,-10517.13 0,0 30826.74,0 30826.74,0 0,0 0,10517.13 0,10517.13z"/>
      <path class="fil10" d="M67816.29 16589.24c0,0 -30689.66,0 -30689.66,0 0,0 0,-10380.03 0,-10380.03 0,0 30689.66,0 30689.66,0 0,0 0,10380.03 0,10380.03zm78.31 -10458.38c0,0 -30826.74,0 -30826.74,0 0,0 0,10517.13 0,10517.13 0,0 30826.74,0 30826.74,0 0,0 0,-10517.13 0,-10517.13z"/>
      <path class="fil17" d="M30712.08 20633.33c-182.99,-1150.68 601.48,-2231.8 1752.18,-2414.79 1150.62,-182.98 2231.74,601.46 2414.72,1752.13 183,1150.73 -601.45,2231.79 -1752.07,2414.77 -1150.7,182.99 -2231.84,-601.39 -2414.83,-1752.11z"/>
      <path class="fil18" d="M34364.39 20052.5c-138.24,-869.29 -954.98,-1461.81 -1824.27,-1323.56 -869.15,138.21 -1461.61,954.85 -1323.37,1824.13 138.22,869.18 954.8,1461.84 1823.95,1323.62 869.29,-138.24 1461.91,-955 1323.69,-1824.18z"/>
      <path class="fil17" d="M33504.55 21271.14c0,0 -430.07,-356.06 -430.07,-356.06 0,0 -78.75,-89.24 -164.79,-75.56 -86.08,13.68 -137.98,93.14 -137.98,93.14 0,0 -310.17,504.34 -310.17,504.34 0,0 -42.99,71.4 16.85,105.95 59.67,34.66 255.55,68.01 513.55,26.98 258.27,-41.07 628,-171.1 512.62,-298.79z"/>
      <path class="fil17" d="M33168.99 19160.74c0,0 -298.4,471.93 -298.4,471.93 0,0 -47.25,109.2 -133.29,122.89 -85.98,13.67 -160.07,-45.75 -160.07,-45.75 0,0 -451.32,-383.19 -451.32,-383.19 0,0 -63.02,-54.48 -16.84,-105.89 46.08,-51.53 221.95,-144 479.89,-185.02 258.24,-41.07 650.05,-32.1 580.02,125.03z"/>
      <path class="fil17" d="M31806.15 20998.86c0,0 356.03,-430.11 356.03,-430.11 0,0 89.34,-78.63 75.65,-164.69 -13.72,-86.25 -93.23,-138.03 -93.23,-138.03 0,0 -504.33,-310.25 -504.33,-310.25 0,0 -71.36,-42.92 -105.84,16.83 -34.75,59.77 -68.08,255.78 -27.05,513.76 41.04,258.11 171.17,627.95 298.78,512.5z"/>
      <path class="fil17" d="M33916.46 20663.26c0,0 -471.86,-298.46 -471.86,-298.46 0,0 -109.3,-47.04 -122.99,-133.1 -13.7,-86.11 45.85,-160.12 45.85,-160.12 0,0 383.12,-451.41 383.12,-451.41 0,0 54.52,-62.94 106.1,-16.87 51.41,46.23 143.86,222.08 184.88,480.05 41.05,258.11 32.02,650.08 -125.1,579.92z"/>
      <path class="fil17" d="M52130.97 20633.33c-182.98,-1150.67 601.46,-2231.79 1752.15,-2414.78 1150.63,-182.98 2231.77,601.45 2414.76,1752.13 182.99,1150.72 -601.48,2231.79 -1752.1,2414.77 -1150.7,182.99 -2231.81,-601.39 -2414.81,-1752.12z"/>
      <path class="fil18" d="M55783.29 20052.5c-138.25,-869.28 -954.99,-1461.8 -1824.25,-1323.56 -869.15,138.21 -1461.64,954.85 -1323.39,1824.14 138.22,869.18 954.83,1461.83 1823.98,1323.61 869.26,-138.24 1461.89,-955 1323.66,-1824.18z"/>
      <path class="fil17" d="M54923.41 21271.15c0,0 -430.04,-356.07 -430.04,-356.07 0,0 -78.74,-89.24 -164.78,-75.56 -86.14,13.7 -138.01,93.14 -138.01,93.14 0,0 -310.17,504.35 -310.17,504.35 0,0 -42.99,71.4 16.85,105.95 59.69,34.65 255.58,68 513.61,26.97 258.21,-41.06 627.96,-171.09 512.55,-298.78z"/>
      <path class="fil17" d="M54587.88 19160.74c0,0 -298.37,471.92 -298.37,471.92 0,0 -47.28,109.21 -133.31,122.89 -85.99,13.67 -160.11,-45.74 -160.11,-45.74 0,0 -451.31,-383.19 -451.31,-383.19 0,0 -63.02,-54.48 -16.84,-105.89 46.1,-51.53 221.95,-144 479.89,-185.02 258.24,-41.07 650.1,-32.11 580.04,125.03z"/>
      <path class="fil17" d="M53225.02 20998.87c0,0 356.05,-430.12 356.05,-430.12 0,0 89.34,-78.63 75.66,-164.69 -13.72,-86.25 -93.24,-138.02 -93.24,-138.02 0,0 -504.35,-310.25 -504.35,-310.25 0,0 -71.37,-42.92 -105.84,16.83 -34.72,59.76 -68.11,255.78 -27.08,513.76 41.04,258.11 171.22,627.94 298.8,512.5z"/>
      <path class="fil17" d="M55335.36 20663.27c0,0 -471.84,-298.47 -471.84,-298.47 0,0 -109.3,-47.04 -122.99,-133.1 -13.7,-86.11 45.84,-160.12 45.84,-160.12 0,0 383.09,-451.4 383.09,-451.4 0,0 54.52,-62.95 106.08,-16.87 51.45,46.22 143.92,222.07 184.94,480.04 41.05,258.11 31.95,650.09 -125.12,579.93z"/>
      <path class="fil17" d="M56820.99 20633.33c-182.99,-1150.67 601.47,-2231.8 1752.15,-2414.78 1150.65,-182.99 2231.76,601.45 2414.75,1752.13 183,1150.72 -601.45,2231.79 -1752.1,2414.77 -1150.67,182.99 -2231.81,-601.39 -2414.8,-1752.12z"/>
      <path class="fil18" d="M60473.31 20052.5c-138.25,-869.28 -954.96,-1461.81 -1824.27,-1323.56 -869.13,138.21 -1461.61,954.85 -1323.37,1824.14 138.22,869.18 954.82,1461.83 1823.95,1323.61 869.31,-138.24 1461.91,-955.01 1323.69,-1824.19z"/>
      <path class="fil17" d="M59613.43 21271.15c0,0 -430.05,-356.07 -430.05,-356.07 0,0 -78.78,-89.23 -164.79,-75.56 -86.14,13.7 -138.01,93.14 -138.01,93.14 0,0 -310.17,504.35 -310.17,504.35 0,0 -43,71.4 16.85,105.95 59.7,34.65 255.61,68 513.58,26.97 258.24,-41.06 627.96,-171.09 512.59,-298.78z"/>
      <path class="fil17" d="M59277.89 19160.74c0,0 -298.37,471.92 -298.37,471.92 0,0 -47.3,109.21 -133.3,122.89 -85.98,13.67 -160.08,-45.75 -160.08,-45.75 0,0 -451.31,-383.19 -451.31,-383.19 0,0 -63.02,-54.48 -16.84,-105.89 46.1,-51.53 221.92,-143.99 479.89,-185.02 258.21,-41.06 650.05,-32.09 580.01,125.04z"/>
      <path class="fil17" d="M57915.01 20998.88c0,0 356.07,-430.13 356.07,-430.13 0,0 89.33,-78.62 75.64,-164.69 -13.72,-86.24 -93.21,-138.02 -93.21,-138.02 0,0 -504.38,-310.25 -504.38,-310.25 0,0 -71.31,-42.92 -105.81,16.83 -34.69,59.76 -68.03,255.77 -27,513.75 41.05,258.11 171.14,627.95 298.7,512.53z"/>
      <path class="fil17" d="M60025.38 20663.27c0,0 -471.86,-298.46 -471.86,-298.46 0,0 -109.28,-47.05 -122.97,-133.11 -13.7,-86.11 45.85,-160.12 45.85,-160.12 0,0 383.1,-451.4 383.1,-451.4 0,0 54.52,-62.95 106.09,-16.88 51.42,46.23 143.89,222.08 184.92,480.05 41.04,258.11 31.99,650.09 -125.13,579.93z"/>
      <path class="fil19" d="M23716.7 22400.96c0,0 47307.12,0 47307.12,0m-47307.12 0l0 0 0 0z"/>
      <path class="fil20 str1" d="M23716.7 22400.96c0,0 47307.12,0 47307.12,0m-47307.12 0l0 0 0 0z"/>
     </g>
    </g>
    <polygon class="fil21" points="56829.78,22233.98 72969.36,22103.46 72969.36,17546.42 36815.95,17661.46 37889.95,21996.28 46150.76,21996.28 46636.58,22100.39 46636.58,21933.09 47224.98,21933.09 47351.36,22122.67 47351.36,22249.04 47394.86,22249.04 47394.86,21680.34 47983.26,21680.34 48425.58,21743.53 48551.96,21806.72 51837.81,21806.72 51964.19,21869.9 52027.38,21869.9 52090.57,21996.28 52469.71,21996.28 52469.71,22059.48 52848.84,22059.48 56829.78,22122.67 "/>
    <circle class="fil1" cx="37139.86" cy="20298.57" r="2040.71"/>
    <circle class="fil1" cx="32421.09" cy="20466.91" r="1872.37"/>
    <circle class="fil1" cx="10982.18" cy="20502.21" r="1848.83"/>
    <g>
    </g>
    <g style="clip-path:url(#id1)">
     <g>
      <path class="fil2" d="M8165.66 20225.06c0,0 886.31,0 886.31,0 0,0 3914.51,0 3914.51,0 0,0 978.63,137.46 978.63,137.46 0,0 890.61,-2770.97 -166.2,-3466.23 -1056.79,-695.23 -6591.87,-2155.01 -5613.24,3328.77z"/>
      <path class="fil3" d="M14425.2 17822.21c0,0 424.62,1477.6 369.26,2049.98 -55.38,572.43 -572.43,480.09 -572.43,480.09 0,0 -646.25,-2097.68 -646.25,-2097.68 0,0 849.42,-432.38 849.42,-432.38z"/>
      <path class="fil2" d="M29476.21 19696.29c0,0 -626.74,0 -626.74,0 0,0 0,-1449.33 0,-1449.33 0,0 626.74,0 626.74,0 0,0 0,1449.33 0,1449.33z"/>
      <path class="fil2" d="M29691.61 19696.28c0,0 -1449.28,0 -1449.28,0 0,0 0,-705.07 0,-705.07 0,0 1449.28,0 1449.28,0 0,0 0,705.07 0,705.07z"/>
      <path class="fil2" d="M35610.95 17807.14c0,0 -939.99,233 -1032.68,1539.25 -92.66,1306.22 90.45,1051.4 90.45,1051.4 0,0 563.5,127.36 563.5,127.36 0,0 3850.69,-42.37 3850.69,-42.37 0,0 201.99,48.04 201.99,48.04 0,0 79.76,85.9 79.76,85.9 0,0 190.88,0 190.88,0 0,0 276.89,-2361.47 -1315.9,-2809.58 -1592.75,-448.12 -2628.69,0 -2628.69,0z"/>
      <path class="fil2" d="M30115.79 20465.74c0,0 -505.66,-2688.26 1668.55,-2797.82 2174.25,-109.57 2039.42,185.38 2039.42,185.38 0,0 1247.21,918.6 969.15,2781.02 0,0 -254.56,-118 -254.56,-118 0,0 -4422.56,-50.58 -4422.56,-50.58z"/>
      <path class="fil4" d="M14492.93 16499.29c0,0 28506,172.42 28506,172.42 0,0 1557.71,640.09 2458.61,689.31 0,0 0,738.58 0,738.58 0,0 -30672.41,147.7 -30672.41,147.7 0,0 -292.2,-1748.02 -292.2,-1748.02z"/>
      <path class="fil5" d="M28516.56 19539.59c0,0 -13161.13,0 -13161.13,0 0,0 0,-1547.2 0,-1547.2 0,0 13161.13,0 13161.13,0 0,0 0,1547.2 0,1547.2z"/>
      <path class="fil3" d="M14884.54 16027.89c0,0 129.44,2335.55 -0.75,2352.85 -130.18,17.38 -1007.22,-4.05 -1007.22,-4.05 0,0 -121.7,102.13 -121.7,102.13 0,0 -96.8,42.39 -96.8,42.39 0,0 -1170.62,-1293.79 -1170.62,-1293.79 0,0 -3090.02,38.77 -3090.02,38.77 0,0 -1041.59,1315.56 -1041.59,1315.56 0,0 -269.08,1493.57 -269.08,1493.57 0,0 -2026.06,0 -2026.06,0 0,0 -423.24,-478.22 -423.24,-478.22 0,0 -149.17,-755.74 -149.17,-755.74 0,0 0,-1591.14 0,-1591.14 0,0 2997.2,-1681.14 2997.2,-1681.14 0,0 6399.06,458.81 6399.06,458.81z"/>
      <path class="fil6" d="M5466.26 11118.02c-55.15,587.55 -189.25,2145.87 -108.53,2943.15 0,0 518.58,-227.7 518.58,-227.7 0,0 0,-2715.45 0,-2715.45 0,0 -410.04,0 -410.04,0z"/>
      <path class="fil7" d="M6094.35 10882.98c0,0 -606.08,0 -606.08,0 0,0 -8.73,117.54 -22,235.04 0,0 410.04,0 410.04,0 0,0 0,2715.48 0,2715.48 0,0 157.7,-77.31 157.7,-77.31 0,0 60.35,-2873.2 60.35,-2873.2z"/>
      <path class="fil3" d="M5481.49 10529.11c0,0 -270.18,480.08 -270.18,480.08 0,0 635.63,0 635.63,0 0,0 102.95,-480.08 102.95,-480.08 0,0 -468.4,0 -468.4,0z"/>
      <path class="fil8" d="M14320.5 10381.24c0,0 -2203.43,-3422.65 -2203.43,-3422.65 0,0 -331.91,25.31 -331.91,25.31 -170.1,0 -489.98,-25.31 -896.76,-25.31 -1419.08,-0.05 -3895.09,156.5 -4753.83,1187.1 -1036.16,1243.45 -467.83,2045.03 -467.83,2045.03 0,0 -185.27,320.17 -185.27,320.17 0,0 468.38,0 468.38,0 0,0 -102.9,509.21 -102.9,509.21 0,0 127.27,0 127.27,0 0,0 0,2574.15 0,2574.15 0,0 -741.52,172.87 -778.45,456.02 -36.9,283.13 12.38,1871.66 12.38,1871.66 0,0 -3.87,0.07 -12.64,0.07 -42.27,0 -161.25,27.66 -120.43,323.41 49.28,357.03 -77.89,794.8 -7.97,880.93 69.94,86.18 144.18,239.3 144.18,239.3 0,0 2769.69,0 2769.69,0 0,0 656.96,-857.76 1109.77,-953.94 452.79,-96.19 1915.46,-115.23 1915.46,-115.23 0,0 2577.83,-165.27 2577.83,-165.27 0,0 270.7,-19.75 268.71,-74.9 -47.78,-0.38 12.27,-160.16 12.27,-160.16 0,0 455.5,-5514.9 455.5,-5514.9z"/>
      <path class="fil8" d="M14899.07 6343.79c-295.43,-184.63 -1046.31,221.6 -1403.31,356.97 -356.98,135.36 -590.86,184.67 -972.44,197.01 -197.04,6.37 -386.92,27.09 -524.98,45.63 0,0 -4.72,47.86 -4.72,47.86 -47.49,487.03 745.58,2800.46 838.03,2944.27 116.98,182.05 156.37,374.71 157.99,382.77 0,0 0.32,1.54 0.32,1.54 0,0 0.26,1.65 0.26,1.65 4.16,26.96 419.27,2699.8 504.09,3124.13 78.08,390.28 148.48,2259.7 163.62,2685.59 371.93,2.75 1322.19,8.7 1499.62,-1.17 221.57,-12.35 172.35,-196.98 172.35,-196.98 0,0 -73.87,-6844.19 12.29,-7632 86.16,-787.84 -147.67,-1772.63 -443.13,-1957.26z"/>
      <path class="fil7" d="M5174.37 17992.36c0,0 936.96,0 936.96,0 0,0 0,2359.91 0,2359.91 0,0 -536.01,-17.97 -744.32,-330.44 -208.29,-312.5 -191.73,-795.66 -191.73,-795.66 0,0 -0.9,-1233.82 -0.9,-1233.82z"/>
      <path class="fil9" d="M5954.67 18619.09c0,0 -705.04,0 -705.04,0 0,0 0,-215.44 0,-215.44 0,0 705.04,0 705.04,0 0,0 0,215.44 0,215.44z"/>
      <path class="fil10" d="M8017.93 20342.57c0,0 295.43,0 295.43,0 0,0 155.28,-1717.78 155.28,-1717.78 0,0 920.05,-1180.84 920.05,-1180.84 0,0 3060.77,0 3060.77,0 0,0 1374.64,665.93 1374.64,2898.62 0,0 397.93,0 397.93,0 0,0 -172.26,-2820.27 -1673.89,-3329.49 0,0 -3126.9,0 -3126.9,0 0,0 -1775.88,1077.19 -1403.31,3329.49z"/>
      <path class="fil7" d="M7316.3 10510.89c0,0 -875.86,1.13 -1049.56,241.62 -173.75,240.5 -223.06,1972.82 -116.13,2707.7 0,0 56.67,126.63 56.67,126.63 0,0 3507.69,-509.61 3507.69,-509.61 0,0 0,-2566.34 0,-2566.34 0,0 -2398.66,0 -2398.66,0z"/>
      <path class="fil6" d="M9479.93 10676.83c0,0 0,2252.7 0,2252.7 0,0 -3220.61,459.13 -3220.61,459.13 0,0 -222.68,-2177.85 169.2,-2511.89 391.94,-334.04 3051.41,-199.94 3051.41,-199.94z"/>
      <path class="fil7" d="M6243.08 13894.74c0,0 83.68,-145.06 53.76,-325.56 -29.94,-180.52 -204.63,81.33 -202.52,209.7 2.14,128.42 -5.15,115.86 148.77,115.86z"/>
      <path class="fil4" d="M6463.85 13778.85c0,0 0,-1661.97 0,-1661.97 0,0 -255.46,0 -255.46,0 0,0 -213.67,362.6 -188.61,775.91 25.07,413.3 -45.57,886.05 444.06,886.05z"/>
      <path class="fil6" d="M9978.56 10463.48c0,0 260.2,2229.15 236.52,2542.2 0,0 1616.87,-162.85 1967.5,-563.55 350.69,-400.73 137.76,-1853.42 -75.11,-1978.65 -212.88,-125.22 -2128.91,0 -2128.91,0z"/>
      <path class="fil7" d="M11460.9 10481.67c493.47,0 590.99,34.82 609.1,45.46 32.39,19.09 118.76,178.98 178.98,551.52 77.19,477.91 71.91,1093.24 -121.95,1314.82 -256.4,292.97 -1343.74,472.89 -1837.06,529.79 -8.98,-457.74 -186.15,-2018.17 -229.11,-2390.91 224.05,-13.44 888.85,-50.68 1400.04,-50.68zm0 -73.87c-630.78,0 -1482.35,55.67 -1482.35,55.67 0,0 260.17,2229.15 236.5,2542.2 0,0 1616.9,-162.87 1967.52,-563.57 350.66,-400.74 137.76,-1853.4 -75.11,-1978.63 -70.95,-41.73 -331.22,-55.67 -646.56,-55.67z"/>
      <path class="fil11" d="M8897.21 15543.2c0,0 285.22,-508.2 597.87,-508.2 0,0 298.21,0 298.21,0 0,0 0,516.5 0,516.5 0,0 -896.08,-8.29 -896.08,-8.29z"/>
      <path class="fil12" d="M5779.48 15567.97c0,0 96.84,249.67 -569.05,353.98 0,0 0,-111.91 0,-111.91 0,0 404.49,72.15 569.05,-242.07z"/>
      <path class="fil12" d="M5332.45 14445.45c0,0 21.11,-23.6 68.37,-60.03 12.05,-8.72 25.49,-18.48 40.35,-29.23 14.48,-11.33 31.43,-21.89 50.29,-32.47 37.46,-21.39 79.23,-49.23 130.85,-70.22 50.78,-22.77 106.22,-50.78 170.53,-70.37 63.54,-21.5 131.59,-48.38 207.62,-64.29 149.76,-42.53 323.54,-68.64 513.13,-92.27 188.92,-18.24 393.55,-37.97 610,-58.85 216.58,-19.85 444.89,-40.8 681.12,-62.54 236.29,-20.66 480.49,-42.03 728.65,-63.67 248.2,-20.72 500.35,-41.76 752.5,-62.75 252.26,-19.78 504.56,-39.54 752.9,-59.04 248.39,-18.48 492.83,-36.67 729.41,-54.26 473.21,-34.35 915.12,-64.08 1294.03,-87.51 378.84,-24.43 694.94,-39.84 916.03,-52.96 110.63,-5.57 197.56,-9.98 256.79,-12.96 59.31,-2.82 90.96,-4.32 90.96,-4.32 0,0 -31.49,3.58 -90.39,10.32 -58.96,6.54 -145.44,16.19 -255.49,28.45 -220.26,22.56 -534.65,58.08 -912.4,94.86 -377.75,37.7 -818.61,79.28 -1291.12,121.38 -236.34,20.63 -480.55,41.97 -728.7,63.65 -248.21,20.64 -500.33,41.69 -752.51,62.67 -252.25,19.75 -504.48,39.49 -752.84,58.93 -248.39,18.49 -492.9,36.59 -729.41,54.16 -236.72,16.56 -465.51,32.55 -682.41,47.7 -217.03,14.13 -422.22,27.52 -611.63,39.87 -187.52,17.63 -359.67,34.58 -509.03,68.98 -75.94,12 -143.67,35.17 -207.51,53.26 -64.55,16.31 -120.16,41.15 -171.43,61.15 -101.96,41.33 -177.4,84.67 -226.76,117.2 -49.06,32.85 -71.89,55.17 -71.89,55.17z"/>
      <path class="fil7" d="M5913.02 17361.05c-0.05,-54.72 -4.99,-5478.66 0,-6145.36 5.09,-687.97 257.3,-834.34 267.99,-840.26 0,0 7.86,-4.27 7.86,-4.27 0,0 8.96,-0.29 8.96,-0.29 0,0 3644.38,-99.33 3644.38,-99.33 0,0 2.42,35.37 2.42,35.37 0,0 407.32,6007.01 407.32,6007.01 0,0 -73.75,5.02 -73.75,5.02 0,0 -404.84,-5971.65 -404.84,-5971.65 0,0 -3562.83,97.2 -3562.83,97.2 -35.95,27.19 -219.36,194.36 -223.68,771.78 -4.96,666.37 -0.02,6089.99 0,6144.72 0,0 -73.83,0.08 -73.83,0.08z"/>
      <path class="fil13" d="M5876.03 8495.65c0,0 142.27,-8.02 391.21,-22.1 248.91,-13.12 604.43,-31.95 1031.06,-54.45 426.52,-22.02 924.08,-47.7 1457.2,-75.26 266.47,-14.37 541.76,-29.16 821.52,-44.23 279.77,-14.65 563.84,-31.26 847.83,-48.96 284.07,-16.21 568.04,-34.04 847.41,-52.9 139.68,-9.71 278.23,-19.33 415.16,-28.86 136.83,-10.19 271.98,-20.19 404.92,-30.05 265.7,-21.78 522.68,-42 765.92,-64.85 121.57,-11.81 239.97,-22.45 354.17,-35.01 114.29,-11.92 224.93,-22.46 330.63,-35.71 105.83,-12.54 207.38,-24.19 303.51,-37.68 96.24,-12.85 187.86,-23.79 273.25,-38 171.29,-25.36 319.77,-52.45 441.96,-75.89 60.74,-13.25 115.04,-25.07 162.18,-35.34 47.62,-9.2 86.55,-22.31 119.01,-30.23 64.45,-17.44 98.88,-26.72 98.88,-26.72 0,0 -33.57,11.94 -96.53,34.37 -62.51,24.14 -156.43,52.3 -276.79,86.5 -120.82,31.42 -268.1,68.99 -438.78,102.99 -170.37,35.52 -363.54,71.08 -575.11,104.05 -211.4,34.13 -441.08,66.58 -684.48,96.29 -243.29,30.36 -500.25,59.33 -766.45,84.74 -266.2,25.18 -541.26,51.17 -821.19,71.65 -279.91,20.54 -564.3,40.44 -848.85,58 -284.54,16 -569.29,30.88 -849.45,43.87 -280.24,13.92 -556.26,22.28 -823.25,31.6 -266.98,9.62 -525.19,14.8 -770.03,20 -244.81,5.63 -476.34,8.16 -690.03,10.08 -427.4,4.16 -783.65,2.09 -1033.03,-0.76 -124.66,-0.99 -222.63,-3.71 -289.4,-4.86 -66.77,-1.49 -102.43,-2.27 -102.43,-2.27z"/>
      <path class="fil14" d="M12990.23 10321.52c0,0 -0.26,-1.66 -0.26,-1.66 0,0 -0.34,-1.6 -0.34,-1.6 -1.63,-8.02 -40.99,-200.69 -157.97,-382.76 -92.45,-143.79 -885.52,-2457.22 -838.03,-2944.27 0,0 4.72,-47.87 4.72,-47.87 -129.08,17.36 -212.79,32.83 -213.14,32.91 87.02,4.42 134.93,7.76 134.93,7.76 -49.27,504.74 738.62,2819.11 849.36,2991.42 110.82,172.37 147.73,357.3 147.73,357.3 0,0 418.52,2696.41 504.68,3127.22 76.24,381.23 146.87,2246.45 162.16,2670.68 20.9,0.15 45.64,0.31 73.88,0.55 -15.15,-425.88 -85.54,-2295.28 -163.62,-2685.59 -84.82,-424.33 -499.93,-3097.17 -504.09,-3124.1z"/>
      <path class="fil15" d="M30200.19 18246.93c0,0 -15138.54,0 -15138.54,0 0,0 0,-881.33 0,-881.33 0,0 15667.77,0 15667.77,0 0,0 -529.23,881.33 -529.23,881.33z"/>
      <path class="fil15" d="M29926.67 20342.59c0,0 -15589.63,0 -15589.63,0 0,0 0,-940.12 0,-940.12 0,0 15589.63,0 15589.63,0 0,0 0,940.12 0,940.12z"/>
      <path class="fil16" d="M46123.43 16582.23c0,0 -30826.74,0 -30826.74,0 0,0 0,-10517.13 0,-10517.13 0,0 30826.74,0 30826.74,0 0,0 0,10517.13 0,10517.13z"/>
      <path class="fil10" d="M46045.12 16523.48c0,0 -30689.66,0 -30689.66,0 0,0 0,-10380.03 0,-10380.03 0,0 30689.66,0 30689.66,0 0,0 0,10380.03 0,10380.03zm78.31 -10458.38c0,0 -30826.74,0 -30826.74,0 0,0 0,10517.13 0,10517.13 0,0 30826.74,0 30826.74,0 0,0 0,-10517.13 0,-10517.13z"/>
      <path class="fil17" d="M8940.91 20567.57c-182.99,-1150.68 601.48,-2231.8 1752.18,-2414.79 1150.62,-182.98 2231.74,601.46 2414.72,1752.13 183,1150.73 -601.45,2231.79 -1752.07,2414.77 -1150.7,182.99 -2231.84,-601.39 -2414.83,-1752.1z"/>
      <path class="fil18" d="M12593.22 19986.74c-138.24,-869.29 -954.98,-1461.81 -1824.27,-1323.56 -869.15,138.21 -1461.61,954.85 -1323.37,1824.13 138.22,869.18 954.8,1461.84 1823.95,1323.62 869.29,-138.24 1461.91,-955 1323.69,-1824.18z"/>
      <path class="fil17" d="M11733.37 21205.38c0,0 -430.07,-356.06 -430.07,-356.06 0,0 -78.75,-89.24 -164.79,-75.56 -86.08,13.69 -137.98,93.14 -137.98,93.14 0,0 -310.17,504.34 -310.17,504.34 0,0 -42.99,71.39 16.85,105.94 59.67,34.66 255.55,68.01 513.55,26.98 258.27,-41.07 628,-171.1 512.62,-298.79z"/>
      <path class="fil17" d="M11397.82 19094.98c0,0 -298.4,471.93 -298.4,471.93 0,0 -47.25,109.2 -133.29,122.88 -85.98,13.68 -160.07,-45.75 -160.07,-45.75 0,0 -451.32,-383.19 -451.32,-383.19 0,0 -63.02,-54.48 -16.84,-105.89 46.08,-51.53 221.95,-144 479.89,-185.02 258.24,-41.07 650.05,-32.1 580.02,125.03z"/>
      <path class="fil17" d="M10034.98 20933.11c0,0 356.03,-430.12 356.03,-430.12 0,0 89.33,-78.63 75.65,-164.69 -13.72,-86.25 -93.23,-138.03 -93.23,-138.03 0,0 -504.33,-310.25 -504.33,-310.25 0,0 -71.36,-42.92 -105.84,16.83 -34.75,59.77 -68.08,255.78 -27.05,513.76 41.04,258.11 171.17,627.95 298.78,512.51z"/>
      <path class="fil17" d="M12145.29 20597.51c0,0 -471.86,-298.46 -471.86,-298.46 0,0 -109.3,-47.03 -122.99,-133.1 -13.7,-86.11 45.85,-160.12 45.85,-160.12 0,0 383.12,-451.41 383.12,-451.41 0,0 54.52,-62.94 106.1,-16.87 51.41,46.23 143.86,222.08 184.88,480.04 41.05,258.11 32.02,650.08 -125.1,579.92z"/>
      <path class="fil17" d="M30359.8 20567.57c-182.99,-1150.67 601.46,-2231.79 1752.15,-2414.78 1150.63,-182.98 2231.76,601.45 2414.76,1752.13 182.99,1150.72 -601.48,2231.79 -1752.1,2414.77 -1150.7,182.99 -2231.81,-601.39 -2414.81,-1752.11z"/>
      <path class="fil18" d="M34012.12 19986.74c-138.25,-869.28 -954.99,-1461.8 -1824.25,-1323.56 -869.15,138.21 -1461.64,954.85 -1323.39,1824.14 138.22,869.18 954.82,1461.83 1823.98,1323.61 869.26,-138.24 1461.89,-955 1323.66,-1824.18z"/>
      <path class="fil17" d="M33152.23 21205.39c0,0 -430.04,-356.07 -430.04,-356.07 0,0 -78.74,-89.24 -164.78,-75.56 -86.14,13.7 -138.01,93.14 -138.01,93.14 0,0 -310.17,504.35 -310.17,504.35 0,0 -42.99,71.39 16.85,105.94 59.69,34.65 255.58,68 513.6,26.97 258.21,-41.06 627.96,-171.09 512.56,-298.78z"/>
      <path class="fil17" d="M32816.7 19094.99c0,0 -298.37,471.92 -298.37,471.92 0,0 -47.28,109.21 -133.31,122.88 -85.99,13.68 -160.11,-45.74 -160.11,-45.74 0,0 -451.31,-383.19 -451.31,-383.19 0,0 -63.02,-54.48 -16.84,-105.89 46.1,-51.53 221.95,-144 479.89,-185.02 258.24,-41.07 650.1,-32.11 580.04,125.03z"/>
      <path class="fil17" d="M31453.85 20933.11c0,0 356.05,-430.12 356.05,-430.12 0,0 89.35,-78.63 75.66,-164.69 -13.72,-86.25 -93.23,-138.02 -93.23,-138.02 0,0 -504.35,-310.25 -504.35,-310.25 0,0 -71.37,-42.92 -105.84,16.83 -34.72,59.76 -68.11,255.78 -27.08,513.76 41.04,258.11 171.22,627.94 298.8,512.5z"/>
      <path class="fil17" d="M33564.19 20597.51c0,0 -471.84,-298.47 -471.84,-298.47 0,0 -109.3,-47.03 -122.99,-133.1 -13.7,-86.11 45.84,-160.12 45.84,-160.12 0,0 383.09,-451.4 383.09,-451.4 0,0 54.52,-62.95 106.08,-16.87 51.45,46.22 143.92,222.07 184.94,480.04 41.05,258.11 31.95,650.09 -125.12,579.93z"/>
      <path class="fil17" d="M35049.82 20567.57c-182.99,-1150.67 601.47,-2231.8 1752.15,-2414.78 1150.65,-182.99 2231.76,601.45 2414.75,1752.13 183,1150.72 -601.45,2231.79 -1752.1,2414.77 -1150.67,182.99 -2231.81,-601.39 -2414.8,-1752.11z"/>
      <path class="fil18" d="M38702.14 19986.74c-138.25,-869.28 -954.96,-1461.81 -1824.27,-1323.56 -869.13,138.21 -1461.61,954.85 -1323.37,1824.14 138.22,869.18 954.82,1461.83 1823.95,1323.62 869.31,-138.25 1461.91,-955.01 1323.69,-1824.19z"/>
      <path class="fil17" d="M37842.26 21205.39c0,0 -430.05,-356.07 -430.05,-356.07 0,0 -78.78,-89.23 -164.79,-75.56 -86.14,13.7 -138.01,93.14 -138.01,93.14 0,0 -310.17,504.35 -310.17,504.35 0,0 -42.99,71.39 16.85,105.94 59.7,34.65 255.61,68 513.58,26.97 258.24,-41.06 627.96,-171.09 512.59,-298.78z"/>
      <path class="fil17" d="M37506.72 19094.99c0,0 -298.37,471.92 -298.37,471.92 0,0 -47.3,109.21 -133.3,122.88 -85.98,13.68 -160.08,-45.75 -160.08,-45.75 0,0 -451.31,-383.19 -451.31,-383.19 0,0 -63.02,-54.48 -16.84,-105.89 46.1,-51.53 221.92,-143.99 479.89,-185.02 258.21,-41.06 650.05,-32.09 580.01,125.05z"/>
      <path class="fil17" d="M36143.84 20933.12c0,0 356.07,-430.13 356.07,-430.13 0,0 89.33,-78.62 75.64,-164.69 -13.72,-86.24 -93.21,-138.02 -93.21,-138.02 0,0 -504.38,-310.25 -504.38,-310.25 0,0 -71.31,-42.92 -105.81,16.83 -34.69,59.76 -68.03,255.77 -27,513.75 41.05,258.11 171.14,627.95 298.7,512.53z"/>
      <path class="fil17" d="M38254.2 20597.51c0,0 -471.86,-298.46 -471.86,-298.46 0,0 -109.28,-47.04 -122.97,-133.11 -13.7,-86.11 45.85,-160.12 45.85,-160.12 0,0 383.1,-451.4 383.1,-451.4 0,0 54.52,-62.95 106.09,-16.88 51.42,46.23 143.89,222.08 184.92,480.04 41.04,258.11 31.99,650.09 -125.13,579.93z"/>
      <path class="fil19" d="M1945.53 22335.21c0,0 47307.12,0 47307.12,0m-47307.12 0l0 0 0 0z"/>
      <path class="fil20 str1" d="M1945.53 22335.21c0,0 47307.12,0 47307.12,0m-47307.12 0l0 0 0 0z"/>
     </g>
    </g>
    <polygon class="fil21" points="-0,28798.98 51198.18,28798.98 51198.18,24796.31 50769.05,24796.31 50769.05,23955.16 50832.24,23639.21 50897.17,23379.49 1649.11,23379.49 1649.11,22115.69 42048.9,22115.69 42048.9,21996.28 50599.17,21996.28 51084.99,22100.39 51084.99,21933.09 51198.18,21933.09 51198.18,16812.18 36845.63,16812.18 36845.63,16729.8 15234.83,16729.8 15234.83,6232.23 14967.1,6232.23 14967.1,5643.83 36845.63,5643.83 36845.63,0 -0,0 "/>
   </g>
   <image x="6356.98" y="9068.29" width="4275.84" height="617.62" xlink:href="truck_Images\truck_ImgID1.png"/>
  </g>
 </g>
</svg>
